<svg width="23" height="19" viewBox="0 0 23 19" fill="none" xmlns="http://www.w3.org/2000/svg">
<path fill-rule="evenodd" clip-rule="evenodd" d="M22.2433 9.49139L22.2433 4.9292C22.2433 2.40958 20.2007 0.367016 17.6811 0.367015C15.1615 0.367015 13.1189 2.40958 13.1189 4.9292L13.1189 6.88442C13.1189 8.32421 14.2861 9.49139 15.7259 9.49139C17.1657 9.49139 18.3868 10.7285 17.6954 11.9914C17.1126 13.056 16.169 13.8951 15.0292 14.3442C14.0245 14.7401 13.1189 15.5807 13.1189 16.6606C13.1189 17.7404 14.0046 18.6376 15.06 18.409C19.1669 17.5193 22.2433 13.8649 22.2433 9.49148L22.2433 9.49139ZM0.0845569 14.7053C0.0845567 16.865 1.91348 18.6914 3.87735 17.7927C7.0234 16.3531 9.20893 13.1776 9.20893 9.49147L9.20893 4.92929C9.20893 2.40966 7.16625 0.367106 4.64663 0.367106C2.12713 0.367106 0.084558 2.40956 0.0845578 4.92906L0.0845576 6.88414C0.0845575 8.32388 1.2517 9.49102 2.69144 9.49102C4.13124 9.49102 5.35239 10.7281 4.66094 11.991C3.77557 13.6081 2.05818 14.7048 0.0849231 14.7049C0.084721 14.7049 0.0845569 14.7051 0.0845569 14.7053Z" fill="#486AFF"/>
</svg>
