<svg width="23" height="19" viewBox="0 0 23 19" fill="none" xmlns="http://www.w3.org/2000/svg">
<path fill-rule="evenodd" clip-rule="evenodd" d="M0.465576 9.32456V13.8867C0.465576 16.4064 2.50814 18.4489 5.02776 18.4489C7.54739 18.4489 9.58995 16.4064 9.58995 13.8867V11.9315C9.58995 10.4917 8.42277 9.32456 6.98298 9.32456C5.5432 9.32456 4.32202 8.08749 5.01342 6.82458C5.59628 5.75993 6.53984 4.92084 7.67966 4.47175C8.68435 4.07589 9.58995 3.23524 9.58995 2.15537C9.58995 1.07551 8.70428 0.17835 7.64889 0.406972C3.54195 1.29663 0.465576 4.9511 0.465576 9.32447V9.32456ZM22.6243 4.11064C22.6243 1.95091 20.7954 0.124541 18.8315 1.02322C15.6855 2.46286 13.4999 5.6383 13.4999 9.32447V13.8867C13.4999 16.4063 15.5426 18.4488 18.0622 18.4488C20.5817 18.4488 22.6243 16.4064 22.6243 13.8869V11.9318C22.6243 10.4921 21.4572 9.32493 20.0174 9.32493C18.5776 9.32493 17.3565 8.0878 18.0479 6.8249C18.9333 5.20782 20.6507 4.11114 22.6239 4.111C22.6241 4.111 22.6243 4.11084 22.6243 4.11064Z" fill="#486AFF"/>
</svg>
