<svg width="221" height="364" viewBox="0 0 221 364" fill="none" xmlns="http://www.w3.org/2000/svg">
<path d="M150.805 152.047V1H220V171.847" stroke="#CCDDE2" stroke-width="1.33142" stroke-miterlimit="10"/>
<path d="M157.683 102.204V111.044H166.522V94.8235H157.683V102.204ZM159.136 96.2709H165.058V102.204H159.136V96.2709ZM159.136 103.654H165.058V109.593H159.136V103.654Z" fill="#D7E8F0"/>
<path d="M173.268 102.204V111.044H182.107V94.8235H173.268V102.204ZM174.726 96.2764H180.659V102.204H174.726V96.2764ZM174.726 103.66H180.659V109.593H174.726V103.66Z" fill="#D7E8F0"/>
<path d="M188.427 102.204V111.044H197.266V94.8235H188.427V102.204ZM189.88 96.2709H195.813V102.204H189.88V96.2709ZM189.88 103.654H195.813V109.593H189.88V103.654Z" fill="#D7E8F0"/>
<path d="M202.697 102.204V111.044H211.537V94.8235H202.697V102.204ZM204.147 96.2709H210.084V102.204H204.147V96.2709ZM204.147 103.654H210.084V109.593H204.147V103.654Z" fill="#D7E8F0"/>
<path d="M147.752 288.141C145.418 290.495 143.106 293.113 140.642 295.492C139.965 296.153 139.271 296.792 138.562 297.409C137.775 298.094 136.963 298.746 136.132 299.342C136.071 299.168 135.997 298.999 135.911 298.837C134.516 296.074 130.731 294.326 130.262 291.193C129.834 288.268 132.472 285.581 132.041 282.713C131.555 279.47 127.566 277.545 126.828 274.377C126.359 272.41 126.779 270.142 126.607 268.115C126.411 265.848 126.028 263.601 125.461 261.397C125.737 261.378 126.013 261.369 126.29 261.361C131.897 261.267 137.416 264.416 139.231 268.841C140.692 272.432 139.949 276.551 141.891 279.907C142.008 280.124 142.14 280.333 142.286 280.531C142.543 280.883 142.82 281.221 143.115 281.542L143.731 282.183C143.833 282.285 143.946 282.379 144.048 282.49C144.15 282.6 144.261 282.697 144.363 282.807C145.33 283.733 146.316 284.663 146.957 285.768C147.015 285.865 147.067 285.964 147.112 286.067C147.17 286.169 147.222 286.276 147.266 286.384C147.324 286.503 147.369 286.616 147.41 286.727C147.451 286.837 147.504 287.003 147.548 287.119C147.609 287.326 147.667 287.522 147.711 287.727C147.711 287.779 147.711 287.824 147.728 287.865C147.744 287.906 147.728 287.898 147.728 287.917C147.732 287.934 147.732 287.951 147.728 287.967C147.728 288.003 147.728 288.028 147.744 288.053V288.069C147.74 288.094 147.743 288.119 147.752 288.141Z" fill="white"/>
<path d="M147.788 288.312H147.797L147.788 288.321V288.312Z" fill="white"/>
<path d="M147.806 288.296C147.875 288.235 147.933 288.194 148.002 288.133C147.944 288.185 147.875 288.243 147.814 288.304C147.814 288.304 147.814 288.304 147.798 288.304L147.806 288.296Z" fill="white"/>
<path d="M167.436 274.697C167.377 275.66 167.377 276.626 167.436 277.589C165.751 278.001 164.091 278.454 162.464 279.001C161.453 279.335 160.461 279.702 159.47 280.122C156.718 281.238 154.128 282.715 151.766 284.514C152.28 283.637 152.643 282.679 152.837 281.68C152.837 281.639 152.854 281.595 152.862 281.545C153.29 279.476 153.324 277.302 154.299 275.324C156.113 271.678 161.42 269.035 166.975 268.863H167.077C167.582 268.863 168.096 268.863 168.61 268.888C168.035 270.783 167.642 272.728 167.436 274.697Z" fill="white"/>
<path d="M164.912 272.034L162.448 278.99C161.437 279.324 160.446 279.691 159.454 280.111C161.037 277.034 162.849 274.252 164.912 272.034Z" fill="white"/>
<path d="M147.816 288.323C147.816 288.268 147.808 288.213 147.791 288.161C147.808 288.263 147.816 288.323 147.816 288.323Z" fill="white"/>
<path d="M129.08 265.043C134.605 272.206 138.273 284.379 140.643 295.492C139.965 296.153 139.272 296.792 138.563 297.409L129.08 265.043Z" fill="white"/>
<path d="M148.588 277.12C147.483 280.492 147.441 283.899 147.571 286.056C147.604 286.753 147.678 287.447 147.792 288.136L148.588 277.12Z" fill="white"/>
<path d="M147.752 288.141C145.418 290.495 143.106 293.113 140.642 295.492C139.965 296.153 139.271 296.792 138.562 297.409C137.775 298.094 136.963 298.746 136.132 299.342C136.071 299.168 135.997 298.999 135.911 298.837C134.516 296.074 130.731 294.326 130.262 291.193C129.834 288.268 132.472 285.581 132.041 282.713C131.555 279.47 127.566 277.545 126.828 274.377C126.359 272.41 126.779 270.142 126.607 268.115C126.411 265.848 126.028 263.601 125.461 261.397C125.737 261.378 126.013 261.369 126.29 261.361C131.897 261.267 137.416 264.416 139.231 268.841C140.692 272.432 139.949 276.551 141.891 279.907C142.008 280.124 142.14 280.333 142.286 280.531C142.543 280.883 142.82 281.221 143.115 281.542L143.731 282.183C143.833 282.285 143.946 282.379 144.048 282.49C144.15 282.6 144.261 282.697 144.363 282.807C145.33 283.733 146.316 284.663 146.957 285.768C147.015 285.865 147.067 285.964 147.112 286.067C147.17 286.169 147.222 286.276 147.266 286.384C147.324 286.503 147.369 286.616 147.41 286.727C147.451 286.837 147.504 287.003 147.548 287.119C147.609 287.326 147.667 287.522 147.711 287.727C147.711 287.779 147.711 287.824 147.728 287.865C147.744 287.906 147.728 287.898 147.728 287.917C147.732 287.934 147.732 287.951 147.728 287.967C147.728 288.003 147.728 288.028 147.744 288.053V288.069C147.74 288.094 147.743 288.119 147.752 288.141Z" stroke="#CCDDE2" stroke-width="1.28446" stroke-miterlimit="10"/>
<path d="M152.837 281.689C152.642 282.684 152.279 283.639 151.766 284.514" stroke="#CCDDE2" stroke-width="1.28446" stroke-miterlimit="10"/>
<path d="M167.428 277.589C167.369 276.626 167.369 275.66 167.428 274.697C167.634 272.731 168.028 270.788 168.602 268.896C168.088 268.863 167.575 268.863 167.069 268.872H166.967C161.412 269.043 156.106 271.686 154.291 275.333C153.316 277.31 153.283 279.476 152.854 281.553" stroke="#CCDDE2" stroke-width="1.28446" stroke-miterlimit="10"/>
<path d="M152.841 281.691C152.841 281.647 152.857 281.606 152.865 281.553" stroke="#CCDDE2" stroke-width="1.28446" stroke-miterlimit="10"/>
<path d="M152.862 281.542C152.862 281.592 152.846 281.636 152.837 281.677C152.643 282.677 152.281 283.636 151.766 284.514" stroke="#CCDDE2" stroke-width="1.28446" stroke-miterlimit="10"/>
<path d="M152.841 281.691C152.841 281.647 152.857 281.606 152.865 281.553" stroke="#CCDDE2" stroke-width="1.28446" stroke-miterlimit="10"/>
<path d="M147.788 288.271V288.312" stroke="#CCDDE2" stroke-width="1.28446" stroke-miterlimit="10"/>
<path d="M164.912 272.034C162.849 274.244 161.045 277.034 159.454 280.122" stroke="#CCDDE2" stroke-width="1.28446" stroke-miterlimit="10"/>
<path d="M147.816 288.323C147.816 288.268 147.808 288.213 147.791 288.161C147.808 288.263 147.816 288.323 147.816 288.323Z" stroke="#CCDDE2" stroke-width="1.28446" stroke-miterlimit="10"/>
<path d="M129.08 265.043C134.605 272.206 138.273 284.379 140.643 295.492" stroke="#CCDDE2" stroke-width="1.28446" stroke-miterlimit="10"/>
<path d="M148.588 277.12C147.483 280.492 147.441 283.899 147.571 286.056C147.604 286.753 147.678 287.447 147.792 288.136" stroke="#CCDDE2" stroke-width="1.28446" stroke-miterlimit="10"/>
<path d="M207.343 197.608C210.859 210.778 214.486 224.968 214.187 238.506C213.87 252.773 206.605 264.748 193.589 270.825C185.117 274.777 176.01 275.504 167.428 277.584C165.743 277.995 164.083 278.448 162.456 278.995C161.445 279.33 160.453 279.697 159.461 280.117C156.713 281.235 154.125 282.714 151.766 284.514" stroke="#CCDDE2" stroke-width="1.28446" stroke-miterlimit="10"/>
<path d="M66.7959 122.645C66.7959 122.645 50.3991 118.902 36.7507 123.515C35.0505 124.075 33.4031 124.785 31.8283 125.636C24.0939 129.821 18.2572 137.686 18.6854 151.969C18.9146 159.427 18.4782 166.783 17.0087 173.921C16.528 176.238 15.9342 178.53 15.227 180.799C13.4948 186.346 10.9947 191.624 7.79926 196.478C-2.37696 211.908 -0.835612 227.946 10.451 242.818C11.0422 243.597 11.6499 244.367 12.2741 245.122" stroke="#CCDDE2" stroke-width="1.28446" stroke-miterlimit="10"/>
<path d="M186.27 115.811H85.3476C73.7077 115.811 64.2715 125.247 64.2715 136.887V232.003C64.2715 243.643 73.7077 253.08 85.3476 253.08H186.27C197.91 253.08 207.346 243.643 207.346 232.003V136.887C207.346 125.247 197.91 115.811 186.27 115.811Z" fill="#889FFF"/>
<path d="M184.87 113.806H84.6602C72.2468 113.806 62.1836 123.869 62.1836 136.282V230.603C62.1836 243.016 72.2468 253.08 84.6602 253.08H184.87C197.284 253.08 207.347 243.016 207.347 230.603V136.282C207.347 123.869 197.284 113.806 184.87 113.806Z" stroke="black" stroke-width="1.28446" stroke-miterlimit="10"/>
<path d="M183.456 118.51H88.1631C76.5231 118.51 67.0869 127.946 67.0869 139.586V229.302C67.0869 240.942 76.5231 250.378 88.1631 250.378H183.456C195.096 250.378 204.532 240.942 204.532 229.302V139.586C204.532 127.946 195.096 118.51 183.456 118.51Z" fill="#889FFF"/>
<path d="M188.292 125.432H159.512C155.6 125.432 152.427 128.846 152.427 133.048V199.663C152.427 203.872 155.6 207.295 159.512 207.295H188.292C192.212 207.295 195.397 203.872 195.397 199.663V133.048C195.397 128.846 192.212 125.432 188.292 125.432ZM193.358 199.953C193.353 201.353 192.794 202.695 191.804 203.685C190.813 204.675 189.471 205.233 188.071 205.237H159.752C158.35 205.233 157.006 204.674 156.014 203.683C155.021 202.692 154.461 201.35 154.454 199.947V132.774C154.461 131.372 155.021 130.029 156.014 129.038C157.006 128.047 158.35 127.489 159.752 127.484H188.071C189.472 127.489 190.815 128.048 191.806 129.039C192.796 130.03 193.354 131.373 193.358 132.774V199.953Z" fill="#D7E8F0"/>
<path d="M187.913 215.112H159.133C155.224 215.112 152.048 218.526 152.048 222.728V232.86C152.048 237.072 155.224 240.495 159.133 240.495H187.913C191.833 240.495 195.018 237.072 195.018 232.86V222.728C195.018 218.526 191.833 215.112 187.913 215.112ZM192.979 233.153C192.976 234.554 192.417 235.896 191.427 236.887C190.436 237.878 189.094 238.436 187.692 238.44H159.373C157.972 238.436 156.628 237.878 155.635 236.888C154.643 235.897 154.082 234.555 154.075 233.153V222.454C154.082 221.052 154.642 219.709 155.635 218.718C156.627 217.727 157.971 217.169 159.373 217.165H187.692C189.094 217.169 190.436 217.728 191.427 218.719C192.418 219.71 192.976 221.053 192.979 222.454V233.153Z" fill="#D7E8F0"/>
<path d="M123.417 222.476L81.2428 221.858C80.7892 221.85 80.3569 221.663 80.0409 221.338C79.7249 221.012 79.5512 220.574 79.5578 220.12C79.5572 219.963 79.5796 219.807 79.6241 219.656C79.7329 219.299 79.9547 218.987 80.2561 218.767C80.5575 218.547 80.9221 218.43 81.2953 218.435L123.47 219.048C123.155 219.538 122.978 220.104 122.959 220.686C122.936 221.315 123.095 221.936 123.417 222.476Z" fill="#889FFF"/>
<path d="M133.643 221.372C133.536 221.728 133.317 222.04 133.018 222.262C132.72 222.484 132.358 222.604 131.986 222.603L128.947 222.559C129.273 222.05 129.451 221.46 129.46 220.856C129.469 220.251 129.31 219.656 129 219.137L132.038 219.181C132.491 219.19 132.922 219.378 133.238 219.704C133.553 220.029 133.728 220.465 133.723 220.919C133.718 221.073 133.691 221.225 133.643 221.372Z" fill="#D7E8F0"/>
<path d="M133.544 228.164C133.437 228.52 133.217 228.831 132.919 229.052C132.62 229.272 132.258 229.39 131.886 229.388L89.9688 228.774C90.3602 228.308 90.6113 227.739 90.693 227.136C90.7745 226.532 90.6833 225.917 90.43 225.363L131.925 225.954C132.378 225.963 132.81 226.151 133.125 226.476C133.441 226.801 133.615 227.238 133.61 227.692C133.612 227.852 133.589 228.011 133.544 228.164Z" fill="#D7E8F0"/>
<path d="M84.9246 228.697L81.1458 228.642C80.6931 228.635 80.2614 228.45 79.9448 228.126C79.6285 227.802 79.4537 227.365 79.4581 226.913C79.4597 226.753 79.483 226.594 79.5271 226.44C79.6329 226.085 79.8523 225.773 80.1514 225.554C80.4506 225.335 80.8135 225.219 81.1845 225.225L84.5517 225.277C84.3548 225.686 84.2437 226.131 84.2258 226.584C84.1976 227.349 84.4457 228.099 84.9246 228.697Z" fill="#889FFF"/>
<path d="M120.434 236.086L81.3013 235.517C80.8485 235.507 80.4179 235.319 80.1024 234.994C79.7873 234.669 79.6124 234.233 79.6163 233.78C79.6171 233.626 79.6414 233.473 79.6881 233.327C79.7942 232.97 80.0132 232.657 80.3118 232.435C80.6107 232.213 80.9731 232.094 81.3455 232.095L120.421 232.669C120.102 233.182 119.932 233.774 119.932 234.378C119.932 234.982 120.102 235.573 120.421 236.086H120.434Z" fill="#889FFF"/>
<path d="M133.707 235.034C133.601 235.39 133.381 235.701 133.083 235.921C132.783 236.142 132.421 236.259 132.049 236.255L125.901 236.175L120.434 236.1C120.115 235.587 119.946 234.996 119.946 234.391C119.946 233.788 120.115 233.196 120.434 232.683L126.003 232.766L132.08 232.854C132.532 232.862 132.963 233.048 133.279 233.372C133.595 233.695 133.769 234.131 133.765 234.583C133.767 234.736 133.747 234.887 133.707 235.034Z" fill="#D7E8F0"/>
<path d="M128.93 222.559C128.506 223.223 127.854 223.71 127.098 223.93C126.341 224.15 125.53 224.088 124.816 223.755C124.102 223.423 123.532 222.842 123.213 222.121C122.895 221.4 122.849 220.589 123.083 219.836C123.318 219.084 123.818 218.443 124.49 218.031C125.161 217.619 125.96 217.465 126.737 217.598C127.514 217.73 128.216 218.14 128.713 218.751C129.211 219.363 129.469 220.134 129.441 220.921C129.421 221.503 129.245 222.069 128.93 222.559Z" fill="white"/>
<g opacity="0.72">
<path opacity="0.72" d="M127.706 220.57C127.633 220.959 127.45 221.319 127.179 221.606C127.047 221.753 126.903 221.887 126.748 222.01C126.662 222.07 126.217 222.427 126.132 222.382C125.546 222.087 124.809 221.344 124.717 220.617C124.702 220.504 124.702 220.388 124.717 220.275C124.75 220.079 124.851 219.902 125.003 219.775C125.155 219.647 125.348 219.579 125.546 219.582C125.676 219.586 125.803 219.622 125.917 219.684C126.03 219.747 126.128 219.836 126.201 219.943C126.284 219.843 126.388 219.764 126.506 219.709C126.625 219.655 126.753 219.629 126.883 219.631C127 219.635 127.115 219.663 127.221 219.713C127.326 219.763 127.421 219.835 127.498 219.923C127.575 220.01 127.634 220.114 127.669 220.225C127.705 220.336 127.718 220.454 127.706 220.57Z" fill="#889FFF"/>
</g>
<path d="M89.9636 228.774C89.6542 229.145 89.2658 229.442 88.8266 229.644C88.3877 229.845 87.909 229.946 87.4262 229.938C86.943 229.931 86.4679 229.815 86.0351 229.601C85.6025 229.386 85.2233 229.077 84.9252 228.697C84.4484 228.098 84.2023 227.349 84.2319 226.584C84.2501 226.131 84.3612 225.686 84.5578 225.277C84.8352 224.714 85.2697 224.243 85.8089 223.921C86.3481 223.598 86.9687 223.439 87.5963 223.463C88.201 223.482 88.7877 223.671 89.2896 224.008C89.7915 224.346 90.1879 224.818 90.4332 225.371C90.6868 225.925 90.7779 226.54 90.6962 227.144C90.6144 227.747 90.3633 228.316 89.9719 228.783L89.9636 228.774Z" fill="white"/>
<g opacity="0.72">
<path opacity="0.72" d="M88.9824 226.462C88.9076 226.85 88.7236 227.208 88.4521 227.495C88.3222 227.644 88.1778 227.779 88.0212 227.899C87.9383 227.96 87.4908 228.319 87.4079 228.272C86.8223 227.979 86.0848 227.236 85.9909 226.507C85.9757 226.393 85.9757 226.278 85.9909 226.164C86.0193 226.002 86.0953 225.852 86.2088 225.734C86.3226 225.615 86.4688 225.533 86.6292 225.498C86.7897 225.463 86.9571 225.476 87.1099 225.536C87.2629 225.596 87.3944 225.7 87.488 225.835C87.5977 225.683 87.7557 225.572 87.9364 225.522C88.1167 225.471 88.3093 225.483 88.4822 225.556C88.6551 225.628 88.7982 225.758 88.8882 225.923C88.978 226.087 89.0092 226.278 88.9769 226.462H88.9824Z" fill="#889FFF"/>
</g>
<path d="M125.901 236.175C125.511 236.763 124.94 237.209 124.274 237.444C123.607 237.679 122.882 237.691 122.209 237.477C121.536 237.263 120.95 236.835 120.542 236.259C120.134 235.682 119.924 234.988 119.946 234.282C119.966 233.716 120.133 233.165 120.429 232.683C120.657 232.319 120.954 232.005 121.303 231.757C121.653 231.509 122.048 231.333 122.466 231.238C122.885 231.144 123.317 231.133 123.74 231.207C124.162 231.281 124.565 231.437 124.927 231.668C125.288 231.899 125.6 232.198 125.845 232.55C126.09 232.902 126.263 233.299 126.353 233.718C126.444 234.137 126.451 234.57 126.373 234.991C126.295 235.413 126.135 235.815 125.901 236.175Z" fill="white"/>
<g opacity="0.72">
<path opacity="0.72" d="M124.698 234.147C124.624 234.536 124.44 234.895 124.168 235.183C124.038 235.331 123.894 235.466 123.737 235.586C123.654 235.647 123.207 236.003 123.124 235.959C122.538 235.663 121.801 234.923 121.707 234.194C121.692 234.08 121.692 233.965 121.707 233.851C121.735 233.69 121.811 233.54 121.925 233.421C122.038 233.303 122.185 233.221 122.345 233.185C122.506 233.15 122.673 233.164 122.826 233.224C122.979 233.283 123.11 233.388 123.204 233.523C123.313 233.371 123.471 233.261 123.651 233.21C123.831 233.159 124.024 233.171 124.196 233.243C124.369 233.316 124.512 233.445 124.602 233.609C124.692 233.773 124.724 233.962 124.693 234.147H124.698Z" fill="#889FFF"/>
</g>
<path d="M79.2352 133.517L79.307 143.514C79.3252 145.258 80.0172 146.927 81.2378 148.172C82.4585 149.417 84.1134 150.143 85.8564 150.196L95.7508 150.367C96.6016 150.38 97.4463 150.222 98.2349 149.903C99.0236 149.583 99.7401 149.108 100.342 148.506C100.943 147.904 101.418 147.188 101.737 146.399C102.057 145.61 102.214 144.765 102.201 143.915L102.126 133.918C102.109 132.174 101.418 130.505 100.198 129.26C98.9772 128.015 97.3223 127.291 95.5796 127.239L85.6851 127.065C84.834 127.052 83.9893 127.21 83.2007 127.529C82.4121 127.849 81.6958 128.324 81.0942 128.926C80.4926 129.527 80.018 130.244 79.6987 131.033C79.3794 131.822 79.2216 132.667 79.2352 133.517Z" fill="white"/>
<path d="M80.7568 136.026L80.8093 143.263C80.8256 144.777 81.4267 146.226 82.4866 147.307C83.5465 148.388 84.9834 149.017 86.4968 149.063L95.0903 149.213C95.8292 149.224 96.5629 149.087 97.2479 148.809C97.9329 148.532 98.5553 148.12 99.0782 147.597C99.6011 147.075 100.014 146.453 100.292 145.768C100.57 145.083 100.708 144.35 100.698 143.611V143.122C99.4906 140.652 97.1399 136.956 94.6207 139.166C91.0049 142.343 89.3503 139.926 87.2427 136.807C85.4831 134.197 82.8064 132.291 80.7568 136.026Z" fill="#889FFF"/>
<path d="M96.9234 135.026C98.015 134.301 98.2962 132.804 97.5515 131.684C96.8071 130.563 95.3185 130.242 94.2271 130.968C93.1355 131.693 92.8543 133.189 93.599 134.31C94.3434 135.431 95.832 135.751 96.9234 135.026Z" fill="#889FFF"/>
<path d="M136.712 137.561C135.166 137.561 133.657 138.039 132.394 138.93C131.13 139.821 130.173 141.082 129.655 142.539C129.136 143.996 129.082 145.577 129.498 147.067C129.914 148.556 130.782 149.88 131.981 150.856L112.369 190.829C112.248 190.81 112.126 190.798 112.004 190.793C111.691 190.797 111.38 190.846 111.081 190.937L98.3224 175.084C98.8919 174.298 99.2146 173.36 99.2491 172.39C99.2834 171.419 99.0278 170.461 98.5152 169.637C98.0028 168.812 97.2561 168.159 96.3705 167.761C95.4852 167.362 94.5013 167.237 93.5444 167.4C92.5873 167.563 91.7006 168.008 90.9974 168.677C90.2938 169.346 89.806 170.209 89.5955 171.157C89.3847 172.105 89.4615 173.094 89.8154 173.998C90.1692 174.902 90.7844 175.68 91.5824 176.233L82.6409 201.679C81.8614 201.726 81.1219 202.041 80.5482 202.571C79.9748 203.101 79.6021 203.813 79.4944 204.587C79.3864 205.36 79.5494 206.147 79.956 206.814C80.3626 207.481 80.9874 207.987 81.7244 208.245C82.4617 208.503 83.2652 208.498 83.9991 208.231C84.7331 207.964 85.3518 207.451 85.7504 206.78C86.149 206.108 86.3029 205.319 86.1858 204.547C86.0684 203.775 85.6874 203.067 85.1076 202.544L94.0491 177.095C94.1596 177.095 94.2673 177.112 94.3778 177.112C95.0427 177.112 95.7007 176.976 96.3114 176.714L109.068 192.561C108.799 193.048 108.656 193.595 108.653 194.152C108.64 194.603 108.718 195.053 108.882 195.473C109.046 195.894 109.292 196.277 109.607 196.601C109.921 196.925 110.298 197.182 110.713 197.358C111.129 197.534 111.576 197.624 112.027 197.624C112.479 197.624 112.926 197.534 113.341 197.358C113.757 197.182 114.134 196.925 114.448 196.601C114.763 196.277 115.009 195.894 115.173 195.473C115.337 195.053 115.414 194.603 115.401 194.152C115.399 193.402 115.144 192.674 114.678 192.086L134.29 152.113C135.321 152.476 136.419 152.609 137.506 152.502C138.594 152.396 139.645 152.053 140.586 151.497C141.527 150.941 142.335 150.186 142.953 149.284C143.571 148.383 143.984 147.357 144.164 146.279C144.344 145.201 144.285 144.097 143.992 143.044C143.699 141.991 143.18 141.015 142.47 140.184C141.76 139.353 140.876 138.688 139.882 138.235C138.887 137.782 137.805 137.552 136.712 137.561Z" fill="#D7E8F0"/>
<path d="M160.412 151.967H186.654" stroke="white" stroke-width="1.28446" stroke-miterlimit="10"/>
<path d="M160.412 156.019H186.654" stroke="white" stroke-width="1.28446" stroke-miterlimit="10"/>
<path d="M160.412 160.068H186.654" stroke="white" stroke-width="1.28446" stroke-miterlimit="10"/>
<path d="M160.412 164.118H186.654" stroke="white" stroke-width="1.28446" stroke-miterlimit="10"/>
<path d="M160.412 168.17H186.654" stroke="white" stroke-width="1.28446" stroke-miterlimit="10"/>
<path d="M160.412 191.826H186.654" stroke="white" stroke-width="1.28446" stroke-miterlimit="10"/>
<path d="M160.412 195.401H186.654" stroke="white" stroke-width="1.28446" stroke-miterlimit="10"/>
<path d="M181.14 222.772C181.404 222.991 181.615 223.266 181.759 223.577C181.902 223.888 181.974 224.228 181.969 224.57L181.908 232.672C181.906 232.978 181.844 233.28 181.725 233.562C181.605 233.843 181.432 234.099 181.213 234.313C180.995 234.527 180.737 234.696 180.453 234.811C180.17 234.925 179.866 234.982 179.56 234.978L167.406 234.873C166.79 234.868 166.201 234.617 165.769 234.178C165.337 233.738 165.098 233.145 165.103 232.528L165.174 224.421C165.198 223.81 165.453 223.232 165.89 222.803C166.325 222.375 166.909 222.13 167.52 222.117L179.674 222.222C180.212 222.227 180.732 222.422 181.14 222.772Z" fill="white"/>
<path d="M179.422 224.253L173.754 229.122C173.681 229.184 173.589 229.218 173.494 229.218C173.399 229.218 173.307 229.184 173.234 229.122L167.464 224.15C167.4 224.096 167.355 224.024 167.334 223.943C167.314 223.863 167.319 223.778 167.35 223.7C167.381 223.623 167.435 223.557 167.505 223.511C167.575 223.466 167.657 223.444 167.74 223.449L179.179 223.551C179.259 223.553 179.337 223.58 179.402 223.628C179.466 223.676 179.515 223.742 179.541 223.818C179.568 223.894 179.57 223.976 179.549 224.054C179.528 224.131 179.483 224.201 179.422 224.253Z" fill="#889FFF"/>
<path d="M173.915 174.681C172.704 174.68 171.52 175.038 170.513 175.71C169.505 176.382 168.72 177.337 168.256 178.456C167.792 179.574 167.669 180.805 167.905 181.993C168.141 183.181 168.723 184.272 169.579 185.128C170.435 185.985 171.526 186.569 172.713 186.805C173.901 187.042 175.132 186.921 176.251 186.458C177.369 185.995 178.326 185.21 178.999 184.203C179.672 183.197 180.031 182.013 180.031 180.802C180.031 179.998 179.873 179.203 179.566 178.46C179.259 177.718 178.808 177.043 178.24 176.475C177.673 175.906 176.998 175.455 176.256 175.148C175.514 174.84 174.718 174.681 173.915 174.681ZM173.915 185.454C173.678 185.454 173.45 185.359 173.282 185.192C173.114 185.024 173.02 184.796 173.02 184.559C173.02 184.321 173.114 184.094 173.282 183.926C173.45 183.758 173.678 183.664 173.915 183.664C174.152 183.664 174.38 183.758 174.548 183.926C174.716 184.094 174.81 184.321 174.81 184.559C174.81 184.796 174.716 185.024 174.548 185.192C174.38 185.359 174.152 185.454 173.915 185.454ZM175.039 178.57C174.851 179.899 174.691 181.294 174.296 182.581C174.259 182.651 174.204 182.71 174.136 182.75C174.069 182.791 173.991 182.813 173.912 182.813C173.833 182.813 173.756 182.791 173.688 182.75C173.62 182.71 173.565 182.651 173.528 182.581C173.248 181.611 173.034 180.624 172.887 179.625C172.763 178.902 172.335 177.722 172.746 177.02C173.103 176.388 174.111 176.313 174.68 176.642C175.407 177.031 175.125 177.891 175.039 178.559V178.57Z" fill="white"/>
<path d="M136.82 150.69C139.856 150.69 142.317 148.229 142.317 145.193C142.317 142.158 139.856 139.697 136.82 139.697C133.784 139.697 131.323 142.158 131.323 145.193C131.323 148.229 133.784 150.69 136.82 150.69Z" fill="white"/>
<path d="M173.87 137.318C174.885 137.318 175.707 136.496 175.707 135.481C175.707 134.467 174.885 133.644 173.87 133.644C172.856 133.644 172.033 134.467 172.033 135.481C172.033 136.496 172.856 137.318 173.87 137.318Z" fill="white"/>
<path d="M168.74 143.788C168.74 142.427 169.281 141.122 170.243 140.16C171.205 139.198 172.509 138.658 173.87 138.658C175.23 138.658 176.535 139.198 177.497 140.16C178.459 141.122 178.999 142.427 178.999 143.788H168.74Z" fill="white"/>
<path d="M138.54 319.371C138.539 319.789 138.411 320.196 138.172 320.538C137.934 320.881 137.597 321.142 137.206 321.289L117.967 328.47C117.967 328.47 117.05 326.769 115.45 323.926L104.462 305.544C101.492 320.819 98.1804 336.114 96.1281 345.646L94.1503 355.137L102.078 357.745C102.555 357.86 102.979 358.131 103.283 358.516C103.587 358.901 103.753 359.376 103.755 359.866C103.754 360.199 103.678 360.527 103.532 360.826C103.385 361.124 103.173 361.386 102.911 361.591C102.649 361.795 102.344 361.938 102.019 362.007C101.693 362.076 101.357 362.071 101.034 361.991L82.6592 357.333V352.842L82.2228 352.756L82.6012 300.364L64.6464 296.119C62.3952 296.82 60.0169 297.464 57.5861 297.986C57.5601 297.99 57.5341 297.995 57.5087 298.003C51.609 299.549 45.4464 299.815 39.4352 298.781C39.3827 298.781 39.3219 298.757 39.2722 298.746C38.8357 298.663 38.3993 298.566 37.9711 298.469C37.8413 298.444 37.7143 298.42 37.5844 298.384C37.2088 298.298 36.8331 298.188 36.4574 298.085C36.2502 298.025 36.0458 297.975 35.8497 297.914C35.6536 297.853 35.5072 297.804 35.3359 297.743C32.1008 296.727 29.1128 295.048 26.563 292.812C24.6081 291.171 22.9505 289.205 21.6627 287C21.1102 286.128 20.5937 285.21 20.113 284.268C17.1961 278.509 16.5884 276.551 17.4364 276.498C15.5691 275.84 13.7598 275.027 12.0279 274.067C12.0279 274.067 8.2104 251.79 16.5359 229.368C16.3768 227.981 16.4055 226.579 16.6215 225.2C18.3756 212.621 28.0297 199.69 39.5484 194.453C45.7193 191.647 55.7823 187.34 52.5311 178.766C51.5035 176.054 50.045 173.717 49.7688 170.902C49.744 170.626 49.7108 170.38 49.6915 170.106C49.2302 163.477 53.0891 157.182 59.3373 154.914C61.382 154.144 63.5672 153.82 65.7472 153.963C67.9269 154.106 70.0511 154.713 71.9775 155.743C72.6429 156.094 73.2399 156.562 73.7398 157.124C75.6403 157.173 78.0269 157.508 79.1484 158.03C81.0488 158.919 82.5708 160.477 83.7089 162.231C85.8082 165.501 86.6513 169.42 86.0817 173.264C85.7546 175.391 84.9972 177.428 83.8553 179.252C83.2923 180.166 82.6391 181.021 81.9051 181.805C81.2615 182.479 80.3472 183.462 79.466 183.824C79.476 183.832 79.4881 183.836 79.5006 183.836C79.5133 183.836 79.5254 183.832 79.5351 183.824L79.2782 187.931C84.5541 186.73 98.65 181.78 108.984 161.342C109.73 159.759 110.497 158.184 111.304 156.627C113.691 151.989 116.248 147.376 119.638 143.387C120.466 142.42 121.693 141.547 123.011 141.967C124.165 142.335 124.944 143.625 124.14 144.707L118.594 152.287L120.364 152.058C120.557 152.104 120.738 152.193 120.893 152.316C121.049 152.44 121.175 152.596 121.264 152.773C121.353 152.951 121.402 153.146 121.408 153.344C121.414 153.542 121.376 153.74 121.298 153.922L120.176 156.585L120.707 155.961C121.072 155.53 121.589 155.257 122.151 155.198C122.712 155.14 123.275 155.301 123.72 155.648C124.166 155.995 124.46 156.5 124.541 157.059C124.623 157.618 124.485 158.186 124.157 158.646L121.234 162.422C120.843 162.92 120.346 163.326 119.779 163.61L113.994 166.399C115.705 168.502 117.296 170.7 118.759 172.982C115.583 179.069 111.86 184.855 107.636 190.268C100.515 199.442 90.261 209.695 77.7424 213.982C77.4661 221.565 76.1264 229.078 74.0465 236.429C80.5406 236.429 86.7363 236.429 93.0012 236.429L97.7247 223.54C97.9418 222.945 98.3365 222.432 98.8555 222.069C99.3743 221.706 99.9922 221.512 100.625 221.512H119.505C119.834 221.513 120.159 221.577 120.464 221.7C120.927 221.891 121.323 222.215 121.601 222.631C121.88 223.047 122.029 223.536 122.03 224.037C122.027 224.344 121.969 224.648 121.859 224.935L120.607 228.189H120.566H115.243L113.077 234.393L113.693 232.827H116.356C116.773 232.827 117.184 232.93 117.551 233.126C117.919 233.323 118.232 233.608 118.463 233.955C118.694 234.303 118.836 234.701 118.876 235.117C118.915 235.532 118.852 235.95 118.69 236.335L116.422 241.76C115.739 243.393 114.655 244.828 113.27 245.933C111.885 247.037 110.245 247.774 108.5 248.077L108.26 248.119L107.815 249.433L108.045 248.98C107.97 249.16 107.884 249.356 107.807 249.572H113.779C113.779 249.572 112.453 253.439 110.014 253.671C109.817 253.686 109.619 253.68 109.423 253.651H97.0479C97.7412 254.422 98.5202 255.356 99.3516 256.452C102.943 256.4 108.166 256.784 109.459 259.292C109.681 259.541 109.884 259.807 110.067 260.088C110.561 260.916 110.724 262.85 110.605 265.642C110.64 268.522 110.399 271.399 109.884 274.233C110.51 275.408 111.113 276.589 111.691 277.777C112.948 280.127 114.082 282.541 115.088 285.009C115.123 285.074 115.152 285.142 115.174 285.213C118.19 292.128 120.835 299.198 123.099 306.394L123.226 306.839C124.939 311.888 126.334 316.477 126.864 319.269L135.841 317.43C136.149 317.327 136.477 317.3 136.798 317.349C137.119 317.398 137.423 317.522 137.686 317.712C137.95 317.901 138.165 318.15 138.313 318.439C138.461 318.727 138.539 319.047 138.54 319.371Z" fill="white"/>
<path d="M107.561 249.903H113.534C113.288 250.577 112.977 251.225 112.603 251.837C111.865 252.991 110.727 254.198 109.222 253.994H91.1038C90.3995 253.999 89.7136 253.769 89.1537 253.342C89.0296 252.768 89.065 252.171 89.2559 251.616C96.5731 250.494 104.07 249.287 107.423 248.594L108.056 248.483L107.561 249.903Z" fill="#889FFF"/>
<path d="M121.785 224.402C121.782 224.709 121.724 225.013 121.614 225.299L120.365 228.551H115.04L112.852 234.793L112.056 236.788H94.6982L98.7201 225.833C98.9383 225.238 99.3339 224.725 99.8529 224.362C100.372 224 100.99 223.805 101.623 223.805H120.501C120.829 223.806 121.155 223.869 121.459 223.993C121.565 224.036 121.668 224.085 121.769 224.139C121.777 224.222 121.785 224.316 121.785 224.402Z" fill="#889FFF"/>
<path d="M121.787 224.399C121.784 224.706 121.726 225.01 121.616 225.297L120.365 228.548H115.042L116.893 223.526C117.097 222.969 117.491 222.502 118.005 222.207C118.52 221.911 119.122 221.807 119.706 221.911C120.29 222.015 120.818 222.321 121.199 222.776C121.58 223.231 121.788 223.806 121.787 224.399Z" fill="#889FFF"/>
<path d="M113.531 249.903C113.531 249.903 111.818 254.936 108.708 253.853C106.775 253.187 107.065 251.262 107.57 249.892L113.531 249.903Z" fill="#889FFF"/>
<path d="M109.156 228.548H100.475" stroke="white" stroke-width="1.28446" stroke-linecap="round" stroke-linejoin="round"/>
<path d="M108.087 231.818H99.4053" stroke="white" stroke-width="1.28446" stroke-linecap="round" stroke-linejoin="round"/>
<path d="M114.888 285.343C113.385 281.708 111.631 278.181 109.64 274.788C110.447 270.515 110.996 263.029 109.248 259.632C107.955 257.121 102.737 256.74 99.1351 256.792C96.3535 253.116 94.105 251.221 94.105 251.221C94.105 251.221 77.3601 253.933 73.5371 253.955C69.7141 253.977 69.7169 256.096 69.7169 256.096C69.7169 256.096 67.054 264.132 64.0431 268.123C61.0323 272.114 52.9333 276.962 41.2627 278.83C29.5921 280.697 20.413 278.396 18.3082 277.225C16.2033 276.053 16.1343 277.183 19.902 284.606C23.6697 292.028 29.4705 297.364 39.2131 299.124C45.2221 300.159 51.3831 299.893 57.2811 298.345C57.2811 298.345 72.6974 294.459 77.2192 291.495C81.741 288.531 82.4482 292.561 82.4482 292.561L82.0062 353.104L93.9392 355.485L104.248 305.894L115.242 324.291L126.664 319.595C125.319 312.532 118.41 293.906 114.888 285.343Z" fill="#2E2E2E"/>
<path d="M83.701 204.389C83.4563 206.071 82.7409 207.649 81.6376 208.941C80.7899 210.024 79.7112 210.905 78.4803 211.518C78.1914 211.658 77.8909 211.773 77.5826 211.861C77.5826 210.902 77.566 209.927 77.5135 208.977C77.3174 205.417 76.5992 201.71 74.3314 198.972C73.2403 197.664 71.8633 196.625 70.3068 195.934C70.351 195.276 70.4034 194.624 70.4449 193.967C70.5636 192.843 70.5578 191.709 70.4283 190.586C70.2819 189.904 70.1987 189.211 70.1797 188.514C70.2045 187.865 70.1106 185.374 70.6244 184.835C71.4816 185.192 72.4 185.38 73.3287 185.387C75.4087 185.371 77.0605 184.095 78.1737 182.462C78.5831 182.328 79.0085 182.25 79.4388 182.23C80.6984 182.418 76.939 185.807 78.1654 185.423C77.3671 185.669 76.7843 186.868 76.4086 187.553C75.8562 188.614 75.5357 189.862 76.0771 190.984C76.6075 192.055 77.7179 192.978 78.5052 193.859C79.5665 194.974 80.5589 196.152 81.4774 197.387C82.9304 199.409 83.9911 201.892 83.701 204.389Z" fill="#889FFF"/>
<path d="M64.5836 194.525C66.5614 194.648 68.5016 195.123 70.3126 195.928C71.868 196.62 73.2439 197.659 74.3344 198.967C76.6023 201.707 77.3205 205.411 77.5166 208.972C77.5691 209.93 77.5939 210.905 77.5856 211.855C77.5442 220.286 76.141 228.628 73.8372 236.785C80.9915 236.785 87.7784 236.785 94.6924 236.785H112.056L112.852 234.793L113.487 233.191H116.166C116.584 233.191 116.994 233.294 117.362 233.491C117.73 233.688 118.044 233.973 118.275 234.321C118.506 234.668 118.648 235.067 118.688 235.483C118.728 235.898 118.664 236.317 118.503 236.702L116.235 242.127C115.55 243.76 114.465 245.194 113.08 246.297C111.695 247.401 110.055 248.138 108.31 248.442L108.07 248.486L107.438 248.596C104.084 249.29 96.5873 250.497 89.2701 251.618C82.5771 252.654 76.0305 253.613 72.934 254.057C71.76 254.229 70.5612 254.356 69.343 254.433C62.1141 254.878 54.6505 253.27 52.7169 245.041C51.4573 239.771 51.7335 234.089 51.7915 228.603" stroke="black" stroke-width="1.28446" stroke-miterlimit="10"/>
<path d="M99.1924 257.03C103.872 256.814 108.065 257.508 109.863 260.436C110.769 261.916 110.548 267.137 109.614 274.418" stroke="black" stroke-width="1.28446" stroke-miterlimit="10"/>
<path d="M20.8018 286.152C20.8117 286.165 20.8203 286.179 20.8266 286.194C22.8293 290.276 26.3512 293.801 30.8564 296.268C46.7312 304.952 70.6083 294.776 79.1962 290.542C79.5388 290.373 79.9189 290.294 80.3003 290.313C80.6818 290.333 81.0522 290.449 81.3762 290.651C81.7005 290.853 81.9676 291.135 82.1527 291.469C82.3375 291.803 82.4342 292.179 82.4336 292.561V357.687L100.806 362.341C101.09 362.414 101.386 362.429 101.676 362.385C101.967 362.34 102.245 362.238 102.495 362.083C102.744 361.928 102.96 361.724 103.129 361.484C103.297 361.243 103.416 360.971 103.477 360.684C103.598 360.126 103.495 359.542 103.191 359.059C102.887 358.576 102.405 358.231 101.85 358.099L93.9247 355.488C94.2921 352.914 99.6675 329.371 104.236 305.897" stroke="black" stroke-width="1.28446" stroke-miterlimit="10"/>
<path d="M93.7509 250.914C98.4468 254.892 101.82 261.007 104.977 266.203C112.67 278.863 118.424 292.641 122.893 306.74C124.244 310.999 125.487 315.303 126.661 319.606L135.633 317.764C136.142 317.598 136.695 317.639 137.175 317.876C137.655 318.114 138.023 318.53 138.2 319.035C138.377 319.54 138.35 320.095 138.123 320.58C137.897 321.065 137.49 321.442 136.989 321.631L117.75 328.813C117.75 328.813 112.12 318.297 104.253 305.886C92.7234 287.677 71.4179 259.612 65.7939 265.598" stroke="black" stroke-width="1.28446" stroke-miterlimit="10"/>
<path d="M76.9668 188.603C76.9668 188.603 95.8331 187.296 108.766 161.693C108.766 161.693 112.854 164.513 118.553 173.335C118.553 173.335 102.565 205.784 77.5165 214.347" stroke="black" stroke-width="1.28446" stroke-miterlimit="10"/>
<path d="M75.2598 158.665L76.3647 160.345L77.0304 161.367C77.7058 162.94 78.2994 164.547 78.8093 166.181L78.8424 166.297L80.1076 171.131C80.1098 171.137 80.1098 171.143 80.1076 171.148C80.5327 171.848 81.1191 172.436 81.8174 172.863C81.9826 172.952 82.1364 173.061 82.2759 173.186C83.0356 173.949 81.0329 174.17 80.6186 174.421C80.4357 174.547 80.286 174.714 80.1816 174.91C80.0772 175.106 80.0217 175.324 80.0192 175.545C77.6408 185.443 79.1711 182.843 78.1491 185.045C79.0358 184.293 81.2401 181.904 81.2401 181.904C81.5163 181.725 81.776 181.186 81.9555 180.918C82.5259 180.043 83.0168 179.118 83.4223 178.156C84.6827 175.28 84.9736 172.073 84.251 169.018C83.1101 164.27 80.4501 159.519 75.2598 158.665Z" fill="#889FFF"/>
<path d="M75.0335 161.651C74.8313 162.678 74.344 163.628 73.6275 164.391C72.8496 165.242 71.9436 165.966 70.9425 166.538C69.0587 167.659 66.9621 168.507 65.3793 170.021C63.7946 171.545 62.846 173.612 62.7248 175.808C62.6143 178.056 63.4181 180.385 63.907 182.49C65.4567 189.293 64.9594 195.832 64.1031 202.679C63.291 209.14 61.5619 215.463 58.2084 221.087C54.2529 227.716 47.7588 233.023 40.4498 235.746C34.3728 238.014 22.5641 240.025 18.0975 233.716C17.3268 231.725 17.3185 229.446 17.6168 227.299C19.3709 214.709 29.025 201.787 40.5437 196.55C46.7146 193.743 56.7776 189.431 53.5264 180.854C52.4905 178.15 51.0404 175.816 50.7641 172.99C50.7393 172.733 50.7144 172.477 50.6895 172.203C50.2255 165.574 54.0844 159.281 60.3326 157.011C62.3767 156.238 64.5622 155.913 66.7425 156.056C68.9228 156.199 71.0472 156.807 72.9728 157.839C73.6565 158.203 74.2686 158.688 74.7793 159.27C74.8144 159.31 74.8459 159.352 74.8733 159.397C74.9122 159.495 74.9434 159.595 74.9672 159.698C75.1199 160.338 75.1423 161.002 75.0335 161.651Z" fill="#889FFF"/>
<path d="M77.5996 211.571C80.9364 210.8 83.8644 208.411 84.7014 204.919C85.4804 201.685 84.2484 198.365 82.3396 195.762C80.569 193.359 76.8814 191.343 77.1714 187.934C77.2654 186.829 77.8123 185.862 78.5249 185.006C78.7818 184.708 79.047 184.432 79.3371 184.15" stroke="black" stroke-width="1.28446" stroke-miterlimit="10"/>
<path d="M70.7191 184.758L70.5645 196.036" stroke="black" stroke-width="1.28446" stroke-miterlimit="10"/>
<path d="M52.3221 179.103C51.2918 176.396 49.8361 174.062 49.5598 171.239C49.5322 170.979 49.5074 170.72 49.488 170.443C49.0212 163.814 52.8829 157.524 59.1284 155.251C61.173 154.48 63.3588 154.155 65.5396 154.298C67.7201 154.44 69.8449 155.048 71.7713 156.08C72.4533 156.445 73.0635 156.931 73.5723 157.513L73.7021 157.671C74.1532 158.222 74.4811 158.863 74.6634 159.552C74.846 160.24 74.8788 160.96 74.7601 161.662C74.559 162.686 74.0747 163.634 73.3624 164.397C72.5815 165.249 71.6741 165.976 70.6719 166.551C68.788 167.673 66.6942 168.515 65.1059 170.029C63.5204 171.557 62.5743 173.631 62.4597 175.83C62.3464 178.078 63.153 180.404 63.6336 182.515C65.1833 189.318 64.6888 195.854 63.8325 202.698C63.0204 209.159 61.294 215.485 57.9351 221.109C53.9795 227.739 47.4881 233.048 40.1764 235.768C33.9806 238.078 21.8321 240.122 17.5644 233.363C16.1308 231.095 16.0369 228.225 16.407 225.567C18.1611 212.98 27.8207 200.052 39.3339 194.818C45.5159 191.978 55.5788 187.677 52.3221 179.103Z" stroke="black" stroke-width="1.28446" stroke-miterlimit="10"/>
<path d="M76.0413 171.449C76.6347 171.449 77.1158 170.968 77.1158 170.374C77.1158 169.781 76.6347 169.3 76.0413 169.3C75.4477 169.3 74.9668 169.781 74.9668 170.374C74.9668 170.968 75.4477 171.449 76.0413 171.449Z" fill="black"/>
<path d="M75.7905 166.91C75.7905 166.91 72.1526 168.551 73.3045 171.742" stroke="black" stroke-width="1.28446" stroke-miterlimit="10"/>
<path d="M79.1517 184.202C80.0633 183.871 81.0356 182.821 81.6985 182.133C82.4316 181.351 83.0869 180.499 83.6542 179.589C85.2528 177.032 86.0875 174.071 86.0604 171.055C86.0336 168.039 85.1461 165.094 83.5023 162.565C82.3642 160.809 80.8478 159.251 78.9473 158.367C77.3634 157.62 75.5909 157.37 73.862 157.649C74.8282 158.437 75.6945 159.341 76.4419 160.339C77.5681 161.817 78.3562 163.523 78.7512 165.339C78.812 165.656 78.8644 165.971 78.9197 166.292C79.1959 167.999 79.3506 169.728 80.1876 171.126C80.6146 171.831 81.2035 172.425 81.9057 172.858C82.0709 172.947 82.2248 173.055 82.3642 173.181C83.1239 173.943 81.1212 174.161 80.7069 174.413C79.6434 175.034 80.0384 176.819 79.8975 177.852C79.7276 179.058 79.3669 180.229 78.8285 181.321C78.6379 181.709 78.4211 182.084 78.1794 182.443C77.0745 184.081 75.4171 185.362 73.3344 185.374C72.4076 185.365 71.4911 185.177 70.6356 184.821C69.1683 184.225 67.856 183.302 66.7988 182.122" stroke="black" stroke-width="1.28446" stroke-miterlimit="10"/>
<path d="M77.1525 178.487C77.1525 178.487 74.6471 179.915 73.5615 176.628" stroke="black" stroke-width="1.28446" stroke-miterlimit="10"/>
<path d="M113.327 166.98L119.57 163.963C120.141 163.688 120.639 163.283 121.026 162.781L123.94 158.999C124.275 158.54 124.419 157.969 124.341 157.406C124.262 156.842 123.967 156.332 123.518 155.982C123.07 155.633 122.503 155.472 121.937 155.533C121.372 155.595 120.853 155.874 120.49 156.312L119.957 156.933L121.081 154.273C121.157 154.09 121.193 153.893 121.187 153.695C121.18 153.497 121.131 153.303 121.043 153.125C120.955 152.948 120.829 152.792 120.675 152.667C120.521 152.542 120.342 152.453 120.15 152.403L118.374 152.638L123.926 145.055C124.713 143.981 123.948 142.683 122.796 142.315C121.47 141.893 120.244 142.766 119.421 143.732C116.034 147.721 113.468 152.334 111.084 156.975C110.283 158.534 109.51 160.107 108.767 161.693" stroke="black" stroke-width="1.28446" stroke-linejoin="round"/>
<path d="M118.377 152.638C118.377 152.638 114.755 157.143 119.959 156.933" stroke="black" stroke-width="1.28446" stroke-miterlimit="10"/>
<path d="M108.293 248.439C108.293 248.439 105.608 252.795 108.735 253.864C111.862 254.933 113.572 249.906 113.572 249.906H107.536" stroke="black" stroke-width="1.28446" stroke-miterlimit="10"/>
<path d="M109.254 253.991H96.8018" stroke="black" stroke-width="1.28446" stroke-miterlimit="10"/>
<path d="M121.826 224.399C121.822 224.706 121.764 225.01 121.654 225.297L120.406 228.548H115.083L116.931 223.526C117.135 222.969 117.53 222.502 118.044 222.207C118.558 221.911 119.16 221.807 119.744 221.911C120.328 222.015 120.857 222.321 121.238 222.776C121.618 223.231 121.826 223.806 121.826 224.399Z" stroke="black" stroke-width="1.28446" stroke-miterlimit="10"/>
<path d="M95.8354 228.548L92.7969 236.782L97.5121 223.902C97.7303 223.306 98.1267 222.792 98.6468 222.43C99.1672 222.067 99.7865 221.873 100.421 221.874H119.298" stroke="black" stroke-width="1.28446" stroke-miterlimit="10"/>
<path d="M112.062 236.782L115.083 228.548" stroke="black" stroke-width="1.28446" stroke-miterlimit="10"/>
<path d="M16.3352 229.714C8.00697 252.135 11.8244 274.418 11.8244 274.418C24.4038 281.418 42.2398 280.81 55.0154 274.659C59.5344 272.476 64.4071 269.189 66.3794 264.372C67.8268 260.844 69.3322 257.345 70.5725 253.767" stroke="black" stroke-width="1.28446" stroke-miterlimit="10"/>
<path d="M9.15332 299.671H82.4447" stroke="black" stroke-width="1.28446" stroke-miterlimit="10"/>
<path d="M73.8437 236.791L73.0537 239.462" stroke="black" stroke-width="1.28446" stroke-miterlimit="10"/>
<path d="M20.8268 286.194C20.8268 286.194 17.6004 280.437 16.5508 276.606" stroke="black" stroke-width="1.28446" stroke-miterlimit="10"/>
<path d="M36.7502 123.515V180.799H15.2266C15.9356 178.532 16.5295 176.24 17.0082 173.921C18.4778 166.783 18.9142 159.414 18.6849 151.969C18.2568 137.686 24.0852 129.821 31.8278 125.637C33.4026 124.785 35.05 124.075 36.7502 123.515Z" stroke="#CCDDE2" stroke-width="1.28446" stroke-miterlimit="10"/>
<path d="M31.8289 125.637V173.921H17.001C18.4705 166.783 18.9069 159.414 18.6777 151.969C18.2578 137.686 24.0862 129.827 31.8289 125.637Z" stroke="#CCDDE2" stroke-width="1.28446" stroke-miterlimit="10"/>
<path d="M78.9502 80.0993H81.8174C81.8717 80.5219 82.0896 80.9064 82.4244 81.1701C82.7592 81.4338 83.184 81.5555 83.6076 81.5092C84.5377 81.5092 85.251 81.039 85.251 80.2251C85.251 79.7374 84.9765 79.2854 83.8629 78.9235L82.3664 78.4716C79.5892 77.7303 79.0603 76.0485 79.0603 74.8727C79.0603 72.6306 80.9974 71.058 83.4984 71.058C85.9093 71.058 87.7546 72.4855 87.7546 74.9095H84.8874C84.8975 74.7204 84.8665 74.5313 84.7965 74.3554C84.7266 74.1794 84.6193 74.0206 84.4822 73.8901C84.3451 73.7595 84.1813 73.6602 84.0021 73.5989C83.8229 73.5377 83.6325 73.516 83.4442 73.5353C83.2665 73.5191 83.0874 73.538 82.917 73.5911C82.7467 73.6441 82.5885 73.7302 82.4515 73.8444C82.3144 73.9587 82.2012 74.0988 82.1184 74.2568C82.0355 74.4148 81.9846 74.5875 81.9686 74.7652C81.9686 74.7836 81.9686 74.8011 81.9642 74.8194C81.9642 75.0721 82.0377 75.6333 83.2047 75.9558L84.5185 76.3745C86.3087 76.9174 88.1348 77.8212 88.1348 80.0809C88.1348 82.7575 85.7974 83.9507 83.4957 83.9507C80.8104 83.9542 78.9502 82.3956 78.9502 80.0993Z" fill="#1678F2"/>
<path d="M95.5908 75.2888H98.2937V83.733H95.5908V82.289C95.4043 82.7846 95.0688 83.2104 94.6306 83.5078C94.1923 83.8052 93.6727 83.9596 93.1432 83.9498C90.8783 83.9498 89.7646 82.4306 89.7646 79.8414V75.2888H92.4675V79.6831C92.4675 80.9847 93.2542 81.4734 93.9465 81.4734C94.1782 81.4844 94.4094 81.4444 94.6238 81.3562C94.8382 81.2679 95.0307 81.1337 95.1875 80.9629C95.3444 80.7922 95.4618 80.589 95.5315 80.3679C95.6012 80.1467 95.6214 79.913 95.5908 79.6831V75.2888Z" fill="#1678F2"/>
<path d="M110.039 79.5012C110.097 80.6218 109.707 81.7196 108.955 82.553C108.204 83.3864 107.152 83.8872 106.032 83.9453L105.893 83.9497C105.397 83.9562 104.906 83.8563 104.452 83.6568C103.998 83.4573 103.593 83.1628 103.262 82.7932V87.8921H100.559V75.2887H103.262V76.1934C103.597 75.8317 104.004 75.5447 104.458 75.3515C104.911 75.1582 105.4 75.0629 105.893 75.0719C107.013 75.0914 108.08 75.5552 108.858 76.3613C109.637 77.1673 110.063 78.2496 110.044 79.37C110.044 79.4137 110.044 79.4575 110.039 79.5012ZM107.298 79.5012C107.298 79.111 107.183 78.7295 106.966 78.405C106.75 78.0805 106.442 77.8275 106.081 77.6779C105.721 77.5284 105.324 77.4891 104.942 77.565C104.559 77.6409 104.207 77.8286 103.931 78.1043C103.655 78.38 103.467 78.7314 103.391 79.114C103.314 79.4966 103.353 79.8933 103.502 80.2539C103.651 80.6145 103.904 80.9228 104.228 81.1398C104.552 81.3569 104.933 81.4729 105.324 81.4732C105.845 81.4689 106.345 81.2598 106.714 80.891C107.083 80.5222 107.293 80.0231 107.298 79.5012Z" fill="#1678F2"/>
<path d="M120.376 80.2976H114.129C114.265 80.7087 114.535 81.0622 114.896 81.3012C115.257 81.5402 115.688 81.6507 116.12 81.6149C116.921 81.6006 117.688 81.2916 118.275 80.7469L119.664 82.4829C118.664 83.4434 117.325 83.9697 115.938 83.9471C114.789 84.0172 113.659 83.628 112.797 82.8653C111.935 82.1025 111.412 81.0286 111.342 79.8797C111.335 79.7652 111.333 79.6507 111.335 79.5353C111.317 78.3678 111.764 77.2411 112.576 76.4029C113.389 75.5647 114.502 75.0838 115.669 75.0658C115.753 75.0658 115.836 75.0658 115.919 75.0658C116.48 75.0367 117.04 75.1183 117.569 75.3058C118.098 75.4934 118.585 75.7832 119.002 76.1589C119.419 76.5346 119.757 76.9887 119.999 77.4952C120.24 78.0018 120.379 78.551 120.408 79.1114C120.408 79.1857 120.414 79.26 120.414 79.3334C120.412 79.5746 120.394 79.8867 120.376 80.2976ZM117.727 78.7241C117.704 78.5175 117.641 78.3174 117.541 78.1353C117.44 77.9531 117.305 77.7926 117.143 77.6627C116.98 77.5328 116.794 77.4362 116.594 77.3783C116.395 77.3205 116.186 77.3025 115.979 77.3255C115.554 77.3021 115.134 77.4295 114.794 77.6854C114.453 77.9413 114.214 78.3092 114.119 78.7241H117.727Z" fill="#1678F2"/>
<path d="M128.631 75.3256L127.992 77.8763C127.624 77.6542 127.199 77.5414 126.769 77.5512C125.709 77.5512 124.831 78.4367 124.831 80.9323V83.7331H122.127V75.2862H124.794V77.0765C124.945 76.5098 125.276 76.0075 125.737 75.6449C126.198 75.2824 126.764 75.0792 127.351 75.066C127.792 75.0498 128.231 75.1388 128.631 75.3256Z" fill="#1678F2"/>
<path d="M138.969 79.5015C138.994 80.0597 138.91 80.6174 138.72 81.1429C138.53 81.6683 138.238 82.1512 137.861 82.5639C137.485 82.9766 137.03 83.3111 136.524 83.5482C136.018 83.7852 135.471 83.9203 134.913 83.9457C134.84 83.9457 134.767 83.9509 134.694 83.9501C134.1 83.9675 133.512 83.836 132.982 83.5675C132.453 83.2991 131.999 82.9023 131.662 82.4133V83.7333H130.073V70.6963H131.662V76.609C131.992 76.1093 132.448 75.7047 132.983 75.4352C133.518 75.1656 134.114 75.0405 134.712 75.0723C135.266 75.0654 135.815 75.1678 136.329 75.3734C136.843 75.579 137.312 75.8839 137.708 76.2707C138.104 76.6574 138.42 77.1184 138.638 77.6274C138.855 78.1363 138.971 78.6831 138.977 79.2367C138.977 79.325 138.977 79.4133 138.969 79.5015ZM137.362 79.4841C137.377 79.115 137.32 78.7466 137.193 78.3998C137.066 78.053 136.872 77.7347 136.621 77.4629C136.371 77.1911 136.07 76.9713 135.735 76.8159C135.4 76.6606 135.038 76.5727 134.669 76.5574H134.548C133.776 76.5762 133.043 76.8959 132.504 77.4483C131.964 78.0007 131.663 78.7419 131.663 79.5138C131.663 80.2856 131.964 81.0269 132.504 81.5793C133.043 82.1317 133.776 82.4514 134.548 82.4701C135.308 82.4563 136.032 82.1411 136.56 81.5938C137.088 81.0464 137.377 80.3118 137.364 79.5514C137.364 79.5295 137.364 79.5085 137.364 79.4867L137.362 79.4841Z" fill="#1678F2"/>
<path d="M149.198 80.1896H142.256C142.338 80.8573 142.674 81.4677 143.196 81.8925C143.717 82.3172 144.383 82.5234 145.054 82.4676C145.547 82.486 146.036 82.3739 146.472 82.1426C146.908 81.9113 147.276 81.569 147.537 81.1503L148.908 81.6931C148.525 82.3708 147.971 82.9359 147.301 83.3317C146.631 83.7275 145.869 83.94 145.091 83.9479C144.313 83.9558 143.546 83.7588 142.868 83.3767C142.191 82.9946 141.625 82.4409 141.229 81.7711C140.833 81.1014 140.62 80.3391 140.612 79.561C140.603 78.7829 140.8 78.0163 141.182 77.3382C141.563 76.6601 142.117 76.0944 142.786 75.6979C143.456 75.3014 144.218 75.0881 144.996 75.0793C145.539 75.0643 146.079 75.1565 146.587 75.3505C147.094 75.5445 147.558 75.8365 147.952 76.21C148.347 76.5834 148.663 77.0309 148.885 77.5268C149.106 78.0228 149.227 78.5575 149.242 79.1004C149.245 79.2315 149.243 79.3626 149.234 79.4938C149.235 79.7193 149.216 79.9544 149.198 80.1896ZM147.648 78.8329C147.589 78.1839 147.279 77.5835 146.785 77.1585C146.291 76.7334 145.651 76.517 145 76.5549C144.339 76.5038 143.684 76.7136 143.175 77.1393C142.667 77.565 142.345 78.1729 142.278 78.8329H147.648Z" fill="#1678F2"/>
<path d="M151.08 72.176C151.065 71.9539 151.116 71.7325 151.228 71.5396C151.339 71.3468 151.504 71.1912 151.704 71.0925C151.903 70.9938 152.128 70.9565 152.348 70.9853C152.569 71.014 152.776 71.1075 152.944 71.254C153.112 71.4005 153.232 71.5933 153.29 71.8082C153.348 72.0231 153.341 72.2503 153.27 72.4613C153.199 72.6722 153.067 72.8573 152.891 72.9932C152.714 73.1292 152.502 73.2098 152.28 73.225C152.251 73.2268 152.222 73.2268 152.192 73.225C152.051 73.2296 151.909 73.2061 151.777 73.1561C151.644 73.1061 151.523 73.0304 151.419 72.9334C151.316 72.8364 151.232 72.72 151.174 72.5908C151.116 72.4616 151.083 72.3221 151.079 72.1804L151.08 72.176ZM151.407 83.7331V75.2836H152.997V83.7331H151.407Z" fill="#1678F2"/>
<path d="M163.609 78.8516V83.7328H162.021V78.9416C162.05 78.6684 162.025 78.3921 161.947 78.1285C161.87 77.8649 161.741 77.6192 161.569 77.4054C161.396 77.1915 161.183 77.0138 160.942 76.8823C160.7 76.7509 160.436 76.6682 160.162 76.6391C160.094 76.6316 160.026 76.6275 159.957 76.6269C159.308 76.5845 158.668 76.8017 158.179 77.2309C157.69 77.6601 157.391 78.266 157.348 78.9154C157.343 78.9958 157.341 79.078 157.344 79.1593V83.7328H155.755V75.2842H157.344V76.5648C157.649 76.0944 158.07 75.7096 158.565 75.4469C159.061 75.1843 159.616 75.0525 160.176 75.0639C162.294 75.0718 163.628 76.4818 163.609 78.8516Z" fill="#1678F2"/>
<path d="M172.995 75.2888H174.585V82.5582C174.585 86.5539 172.758 88.0548 169.945 88.0548C169.161 88.0595 168.39 87.8518 167.715 87.4538C167.039 87.0558 166.484 86.4823 166.109 85.7942L167.46 85.0888C167.706 85.5338 168.066 85.9057 168.502 86.1667C168.938 86.4277 169.436 86.5686 169.945 86.5748C171.826 86.5748 172.994 85.5259 172.994 82.6692V82.413C172.658 82.9022 172.204 83.2991 171.674 83.5676C171.144 83.836 170.556 83.9674 169.962 83.9498C168.817 83.904 167.734 83.4175 166.939 82.5918C166.144 81.7662 165.699 80.6654 165.696 79.5192C165.694 78.3731 166.135 77.2705 166.926 76.4416C167.718 75.6126 168.799 75.1216 169.944 75.0711C170.541 75.0434 171.136 75.1703 171.67 75.4395C172.204 75.7087 172.66 76.1111 172.994 76.6079L172.995 75.2888ZM172.995 79.4847C172.999 79.1028 172.926 78.7241 172.783 78.3702C172.64 78.0162 172.428 77.694 172.16 77.4219C171.892 77.1499 171.573 76.9333 171.222 76.7846C170.87 76.6359 170.492 76.558 170.111 76.5554H170.087C169.718 76.5568 169.353 76.6308 169.013 76.7733C168.673 76.9158 168.364 77.1239 168.104 77.3858C167.844 77.6477 167.639 77.9582 167.499 78.2996C167.359 78.641 167.288 79.0065 167.29 79.3754C167.29 79.4112 167.29 79.448 167.29 79.4847C167.269 80.232 167.543 80.9576 168.052 81.5054C168.56 82.0531 169.264 82.3792 170.011 82.4136C170.758 82.448 171.488 82.1878 172.045 81.6891C172.602 81.1904 172.941 80.493 172.989 79.7469C173 79.6612 173 79.5721 172.995 79.4838V79.4847Z" fill="#1678F2"/>
<path d="M176.688 81.2561H178.167C178.186 81.9799 178.825 82.5743 179.866 82.5743C180.944 82.5743 181.582 82.0499 181.582 81.3619C181.582 80.729 181.089 80.4004 180.413 80.2596L179.244 79.9878C177.82 79.6084 176.997 78.9213 176.997 77.5655C176.997 76.1669 178.203 75.0698 179.919 75.0698C181.362 75.0698 182.861 75.8295 182.861 77.5288H181.327C181.278 77.2078 181.11 76.9171 180.856 76.7157C180.601 76.5142 180.279 76.4171 179.956 76.444C179.629 76.4092 179.302 76.5057 179.046 76.7122C178.79 76.9188 178.626 77.2184 178.591 77.5454C178.591 77.5699 178.587 77.5952 178.586 77.6197C178.586 78.1984 179.134 78.5061 179.681 78.6328L180.943 78.9423C182.714 79.3794 183.171 80.4283 183.171 81.3838C183.171 82.9572 181.637 83.9511 179.865 83.9511C179.088 84.0082 178.319 83.7577 177.725 83.2536C177.131 82.7496 176.758 82.0322 176.688 81.2561Z" fill="#1678F2"/>
<path d="M78.9689 58H65.9844V70.9845H78.9689V58Z" fill="#1678F2"/>
<path d="M65.9845 70.9843H53V83.9688H65.9845V70.9843Z" fill="#1678F2"/>
</svg>
