<svg width="8" height="11" viewBox="0 0 8 11" fill="none" xmlns="http://www.w3.org/2000/svg">
<path d="M1.13484 2.52438C1.70069 2.52438 2.15939 2.06568 2.15939 1.49983C2.15939 0.933988 1.70069 0.475281 1.13484 0.475281C0.568998 0.475281 0.110291 0.933988 0.110291 1.49983C0.110291 2.06568 0.568998 2.52438 1.13484 2.52438Z" fill="black"/>
<path d="M6.34866 2.52438C6.91451 2.52438 7.37321 2.06568 7.37321 1.49983C7.37321 0.933988 6.91451 0.475281 6.34866 0.475281C5.78282 0.475281 5.32411 0.933988 5.32411 1.49983C5.32411 2.06568 5.78282 2.52438 6.34866 2.52438Z" fill="black"/>
<path d="M1.13484 6.68991C1.70069 6.68991 2.15939 6.2312 2.15939 5.66536C2.15939 5.09952 1.70069 4.64081 1.13484 4.64081C0.568998 4.64081 0.110291 5.09952 0.110291 5.66536C0.110291 6.2312 0.568998 6.68991 1.13484 6.68991Z" fill="black"/>
<path d="M6.34866 6.68991C6.91451 6.68991 7.37321 6.2312 7.37321 5.66536C7.37321 5.09952 6.91451 4.64081 6.34866 4.64081C5.78282 4.64081 5.32411 5.09952 5.32411 5.66536C5.32411 6.2312 5.78282 6.68991 6.34866 6.68991Z" fill="black"/>
<path d="M1.13484 10.8577C1.70069 10.8577 2.15939 10.399 2.15939 9.83314C2.15939 9.2673 1.70069 8.80859 1.13484 8.80859C0.568998 8.80859 0.110291 9.2673 0.110291 9.83314C0.110291 10.399 0.568998 10.8577 1.13484 10.8577Z" fill="black"/>
<path d="M6.34866 10.8577C6.91451 10.8577 7.37321 10.399 7.37321 9.83314C7.37321 9.2673 6.91451 8.80859 6.34866 8.80859C5.78282 8.80859 5.32411 9.2673 5.32411 9.83314C5.32411 10.399 5.78282 10.8577 6.34866 10.8577Z" fill="black"/>
</svg>
