<svg width="538" height="374" viewBox="0 0 538 374" fill="none" xmlns="http://www.w3.org/2000/svg">
<path d="M490.765 39.9962H383.67C378.217 39.9962 373.797 44.4165 373.797 49.8691V203.012C373.797 208.465 378.217 212.885 383.67 212.885H490.765C496.218 212.885 500.638 208.465 500.638 203.012V49.8691C500.638 44.4165 496.218 39.9962 490.765 39.9962Z" stroke="#CCDDE2" stroke-width="2.86576" stroke-miterlimit="10"/>
<path d="M486.144 57.8079H389.592C386.866 57.8079 384.656 60.018 384.656 62.7443V83.2793C384.656 86.0057 386.866 88.2158 389.592 88.2158H486.144C488.87 88.2158 491.08 86.0057 491.08 83.2793V62.7443C491.08 60.018 488.87 57.8079 486.144 57.8079Z" stroke="#CCDDE2" stroke-width="2.86576" stroke-miterlimit="10"/>
<path d="M437.218 70.6177C438.954 70.6177 440.362 69.2098 440.362 67.4731C440.362 65.7364 438.954 64.3285 437.218 64.3285C435.481 64.3285 434.073 65.7364 434.073 67.4731C434.073 69.2098 435.481 70.6177 437.218 70.6177Z" fill="#E2E5F1"/>
<path d="M428.432 81.7011C428.432 79.3705 429.358 77.1354 431.005 75.4878C432.654 73.8395 434.889 72.9139 437.219 72.9139C439.549 72.9139 441.784 73.8395 443.433 75.4878C445.08 77.1354 446.006 79.3705 446.006 81.7011H428.432Z" fill="#E2E5F1"/>
<path d="M437.858 120.807C434.508 120.808 431.234 121.803 428.449 123.665C425.664 125.526 423.494 128.173 422.212 131.268C420.931 134.363 420.597 137.769 421.251 141.055C421.906 144.34 423.519 147.358 425.889 149.726C428.258 152.095 431.276 153.708 434.562 154.361C437.848 155.014 441.253 154.678 444.348 153.396C447.443 152.113 450.089 149.942 451.949 147.157C453.81 144.371 454.804 141.097 454.804 137.747C454.804 135.522 454.365 133.318 453.514 131.263C452.662 129.207 451.414 127.339 449.841 125.766C448.266 124.193 446.399 122.946 444.343 122.095C442.287 121.244 440.083 120.806 437.858 120.807ZM437.858 150.598C437.222 150.567 436.623 150.292 436.183 149.831C435.744 149.37 435.5 148.758 435.5 148.121C435.5 147.484 435.744 146.871 436.183 146.41C436.623 145.949 437.222 145.675 437.858 145.644C438.494 145.675 439.094 145.949 439.533 146.41C439.972 146.871 440.217 147.484 440.217 148.121C440.217 148.758 439.972 149.37 439.533 149.831C439.094 150.292 438.494 150.567 437.858 150.598ZM440.985 131.546C440.463 135.219 440.024 139.076 438.926 142.648C438.665 143.508 437.051 143.508 436.79 142.648C436.017 139.962 435.423 137.229 435.01 134.466C434.672 132.454 433.497 129.197 434.619 127.245C435.61 125.465 438.398 125.287 440.018 126.201C442.006 127.322 441.222 129.719 440.985 131.546Z" fill="#E2E5F1"/>
<path d="M252.51 74.3201C246.571 72.549 240.24 72.5793 234.318 74.4061C228.396 76.2336 223.149 79.7757 219.24 84.5852C215.332 89.3947 212.937 95.255 212.359 101.426C211.781 107.596 213.046 113.799 215.994 119.25C218.942 124.702 223.44 129.157 228.919 132.052C234.399 134.947 240.614 136.152 246.779 135.515C252.944 134.877 258.781 132.426 263.552 128.471C268.323 124.516 271.815 119.235 273.585 113.296C274.76 109.352 275.148 105.217 274.725 101.124C274.302 97.0308 273.078 93.0615 271.121 89.4422C269.163 85.8229 266.512 82.6249 263.319 80.0303C260.126 77.4351 256.453 75.4949 252.51 74.3201ZM236.769 127.126C235.637 126.752 234.695 125.952 234.144 124.896C233.593 123.84 233.475 122.61 233.815 121.468C234.156 120.325 234.928 119.361 235.968 118.779C237.008 118.197 238.234 118.043 239.386 118.351C239.978 118.509 240.532 118.784 241.015 119.159C241.5 119.536 241.903 120.005 242.202 120.54C242.501 121.074 242.69 121.664 242.757 122.273C242.824 122.882 242.769 123.498 242.594 124.085C242.419 124.673 242.128 125.219 241.738 125.691C241.348 126.164 240.868 126.554 240.324 126.837C239.781 127.121 239.187 127.292 238.576 127.342C237.965 127.391 237.35 127.318 236.769 127.126ZM252.373 95.0034C249.508 101.239 246.683 107.843 242.88 113.592C241.966 114.981 239.101 114.126 239.095 112.465C239.143 107.302 239.54 102.148 240.281 97.0385C240.744 93.3065 240.382 86.9105 243.402 84.0388C246.084 81.4697 251.116 82.5733 253.519 85.0415C256.408 88.0556 253.762 91.8944 252.373 95.0034Z" fill="#3E60FF" fill-opacity="0.22"/>
<path d="M164.996 143.698C162.823 145.909 161.355 148.715 160.777 151.76C160.198 154.806 160.536 157.955 161.747 160.809C162.958 163.663 164.989 166.093 167.581 167.793C170.173 169.493 173.212 170.386 176.311 170.359C179.411 170.333 182.434 169.388 184.997 167.644C187.559 165.899 189.548 163.435 190.71 160.561C191.872 157.687 192.156 154.532 191.525 151.497C190.895 148.462 189.379 145.682 187.168 143.508C184.203 140.593 180.201 138.976 176.043 139.012C171.885 139.047 167.911 140.733 164.996 143.698ZM184.659 163.022C184.448 163.237 184.197 163.408 183.92 163.525C183.643 163.644 183.346 163.705 183.045 163.708C182.745 163.711 182.446 163.654 182.167 163.541C181.888 163.429 181.634 163.263 181.419 163.052C181.205 162.841 181.033 162.59 180.916 162.313C180.798 162.037 180.736 161.739 180.734 161.438C180.731 161.137 180.787 160.839 180.9 160.56C181.013 160.281 181.179 160.027 181.389 159.812C181.815 159.379 182.396 159.132 183.003 159.127C183.611 159.121 184.196 159.357 184.629 159.783C185.063 160.208 185.309 160.789 185.315 161.397C185.321 162.004 185.085 162.589 184.659 163.022ZM174.115 148.61C176.198 151.34 178.458 154.134 180.102 157.172C180.499 157.902 179.455 158.952 178.719 158.584C176.454 157.347 174.273 155.96 172.193 154.431C170.644 153.357 167.737 152.016 167.173 150.005C166.663 148.225 168.36 146.243 169.986 145.774C171.985 145.193 173.059 147.264 174.115 148.61Z" fill="#3E60FF" fill-opacity="0.22"/>
<path d="M395.301 101.791H478.052" stroke="#CCDDE2" stroke-width="2.86576" stroke-miterlimit="10"/>
<path d="M395.301 109.937H478.052" stroke="#CCDDE2" stroke-width="2.86576" stroke-miterlimit="10"/>
<path d="M395.301 162.387H478.052" stroke="#CCDDE2" stroke-width="2.86576" stroke-miterlimit="10"/>
<path d="M414.519 170.095H458.828" stroke="#CCDDE2" stroke-width="2.86576" stroke-miterlimit="10"/>
<path d="M500.646 151.696C507.944 160.868 514.886 172.237 521.163 186.245C559.385 271.601 511.61 314.92 511.61 314.92" stroke="#9F9F9F" stroke-width="2.86576" stroke-miterlimit="10"/>
<path d="M101.427 219.376C101.427 219.376 44.7108 155.042 115.435 123.186C186.16 91.3308 200.162 86.9046 195.059 53.7673C189.957 20.6301 230.066 -13.1123 293.142 9.18485C356.219 31.482 357.482 73.5013 353.009 105.986C350.469 124.504 360.977 128.954 373.775 128.022" stroke="#9F9F9F" stroke-width="2.86576" stroke-miterlimit="10"/>
<path d="M496.646 342.681C496.502 346.233 495.582 349.71 493.952 352.869C493.888 353.026 493.812 353.178 493.726 353.326C490.867 358.463 486.866 362.876 482.032 366.224L481.86 366.343C477.497 369.262 472.589 371.27 467.43 372.247C467.43 372.294 467.43 372.247 467.43 372.247H522.337C522.337 372.247 514.991 267.495 447.483 216.528C382.152 167.211 320.986 190.98 317.105 192.57C318.307 195.964 318.845 199.558 318.689 203.155C318.689 203.155 323.602 205.712 324.421 214.867C325.24 224.022 326.949 249.476 310.519 254.27C310.519 254.27 295.769 253.908 291.871 248.248C287.973 242.587 287.035 243.738 285.505 245.174C284.318 246.26 277.157 250.14 273.852 251.92C274.27 251.94 274.684 251.998 275.092 252.092C275.092 252.092 276.985 268.065 300.142 293.097C300.927 293.924 301.668 294.791 302.361 295.696C305.858 298.753 309.788 301.874 314.15 305.059L340.577 324.395C341.173 324.902 341.881 325.262 342.642 325.445C344.121 325.818 345.666 325.832 347.151 325.487C350.225 324.893 371.211 322.751 384.792 321.399C385.1 321.399 385.427 321.339 385.729 321.304L387.509 321.132C387.794 321.132 388.103 321.072 388.352 321.055L389.954 320.9C390.737 320.823 391.443 320.746 392.096 320.693L393.876 320.521C395.448 320.366 396.379 320.271 396.457 320.271C399.692 320.179 402.917 319.866 406.11 319.334C409.166 318.741 411.954 317.785 412.678 316.201C412.815 315.867 412.866 315.504 412.826 315.145C412.663 314.137 412.242 313.189 411.604 312.392C408.816 308.648 402.336 305.438 401.862 305.207C401.849 305.202 401.834 305.202 401.82 305.207L401.69 305.112L363.124 275.149H363.082C363.082 275.149 368.891 213.182 421.821 228.431C421.821 228.431 422.07 228.603 422.527 228.982C424.592 230.572 431.089 235.841 440.642 245.684C440.891 245.951 441.158 246.218 441.425 246.503C442.439 247.536 443.436 248.61 444.427 249.66C451.132 256.827 459.064 265.958 467.816 277.344L467.875 277.404C477.902 290.457 485.129 302.418 489.828 313.003V313.039C494.913 324.543 497.055 334.398 496.634 342.26C496.647 342.4 496.651 342.541 496.646 342.681ZM336.999 236.173C335.433 218.119 344.22 211.58 344.713 211.218C332.217 233.824 355.393 268.474 356.205 269.815C355.541 269.257 338.566 254.222 336.999 236.173Z" fill="#353642"/>
<path d="M303.809 232.631C303.159 233.109 302.481 233.549 301.78 233.948L297.709 226.828C307.096 222.028 309.73 213.568 305.601 208.922C304.446 207.651 302.957 206.73 301.305 206.264C297.152 205.006 294.274 206.857 292.322 209.343C290.729 211.504 289.561 213.949 288.881 216.546L286.899 193.691L286.745 191.911C286.745 191.911 282.425 189.769 270.725 191.68C259.025 193.59 256.871 200.052 251.845 197.186C246.82 194.32 243.972 194.552 243.972 194.552C242.542 199.803 238.715 199.803 238.715 199.803C237.809 199.693 236.918 199.476 236.063 199.156C230.634 194.166 229.163 185.509 229.163 185.509C234.859 184.803 235.298 179.321 234.645 174.829C237.801 176.704 242.251 176.835 248.499 172.824C266.423 161.361 284.805 167.567 291.266 168.522C294.15 168.944 297.306 167.929 299.923 166.742C300.261 167.348 300.731 167.869 301.299 168.267C305.661 171.306 309.258 175.315 311.807 179.979C328.628 211.42 310.187 228.116 303.809 232.631Z" fill="#3E60FF" fill-opacity="0.22"/>
<path d="M236.662 372.259H243.426C246.319 372.256 249.092 371.104 251.138 369.059C253.183 367.014 254.334 364.24 254.337 361.347V353.776C254.337 353.086 254.201 352.403 253.937 351.766C253.673 351.128 253.285 350.549 252.797 350.061C252.309 349.573 251.729 349.187 251.092 348.924C250.454 348.66 249.771 348.525 249.08 348.525H208.628C208.629 350.137 208.312 351.733 207.697 353.222C207.08 354.711 206.177 356.064 205.037 357.203C203.897 358.342 202.544 359.245 201.054 359.861C199.565 360.476 197.969 360.792 196.358 360.79H50.1799C50.1811 363.831 51.3903 366.747 53.5405 368.897C55.6913 371.048 58.6075 372.257 61.6489 372.259H259.82C260.078 372.259 260.335 372.209 260.574 372.11C260.813 372.011 261.031 371.866 261.214 371.683C261.397 371.5 261.542 371.283 261.641 371.043C261.74 370.804 261.79 370.547 261.789 370.289V358.001C261.789 355.613 262.738 353.324 264.426 351.636C266.114 349.948 268.403 349 270.79 349C273.177 349 275.467 349.948 277.155 351.636C278.842 353.324 279.791 355.613 279.791 358.001V370.289C279.79 370.547 279.84 370.803 279.939 371.042C280.037 371.281 280.181 371.498 280.364 371.681C280.546 371.864 280.763 372.009 281.002 372.108C281.24 372.207 281.496 372.259 281.755 372.259H522.337C522.337 372.259 514.991 267.483 447.483 216.522C382.152 167.205 320.986 190.974 317.105 192.564L316.915 192.635" stroke="black" stroke-width="2.86576" stroke-miterlimit="10"/>
<path d="M249.462 218.208C249.46 218.866 249.262 219.51 248.894 220.056C248.527 220.603 248.005 221.029 247.397 221.279C246.787 221.53 246.117 221.595 245.472 221.465C244.826 221.336 244.232 221.017 243.767 220.552C243.302 220.085 242.985 219.491 242.857 218.845C242.728 218.199 242.794 217.53 243.046 216.921C243.298 216.312 243.725 215.792 244.272 215.425C244.819 215.059 245.462 214.862 246.122 214.861C246.379 214.862 246.636 214.894 246.887 214.956C246.541 215.065 246.24 215.282 246.026 215.574C245.813 215.867 245.699 216.22 245.7 216.582C245.699 216.809 245.742 217.034 245.827 217.245C245.913 217.455 246.04 217.647 246.199 217.808C246.359 217.97 246.549 218.098 246.759 218.186C246.969 218.274 247.194 218.32 247.421 218.32C247.836 218.312 248.236 218.159 248.55 217.887C248.865 217.615 249.073 217.241 249.142 216.831C249.346 217.262 249.455 217.731 249.462 218.208Z" fill="black"/>
<path d="M272.606 219.139C272.608 219.801 272.412 220.449 272.046 221C271.678 221.551 271.156 221.981 270.545 222.235C269.934 222.49 269.261 222.557 268.611 222.428C267.961 222.3 267.365 221.981 266.896 221.514C266.428 221.046 266.108 220.45 265.978 219.8C265.849 219.151 265.915 218.478 266.168 217.866C266.421 217.254 266.85 216.731 267.401 216.363C267.951 215.995 268.598 215.799 269.26 215.799C269.42 215.797 269.579 215.816 269.735 215.852C269.439 215.989 269.188 216.207 269.013 216.482C268.837 216.756 268.744 217.075 268.744 217.401C268.724 217.857 268.885 218.303 269.194 218.64C269.502 218.977 269.931 219.178 270.387 219.198C270.844 219.219 271.29 219.057 271.627 218.749C271.964 218.441 272.165 218.011 272.185 217.555C272.459 218.038 272.604 218.584 272.606 219.139Z" fill="black"/>
<path d="M299.301 162.043C298.915 164.642 299.396 166.92 301.306 168.273C305.668 171.312 309.265 175.321 311.814 179.985C331.88 217.478 301.781 233.978 301.781 233.978L297.711 226.858C309.429 220.877 310.627 209.165 301.306 206.294C291.985 203.422 288.882 216.576 288.882 216.576L286.746 191.923C286.746 191.923 282.427 189.781 270.726 191.692C259.026 193.602 256.872 200.064 251.847 197.198C246.821 194.332 243.973 194.564 243.973 194.564C242.543 199.814 238.716 199.814 238.716 199.814C227.503 198.385 224.868 182.869 224.868 182.869C230.558 182.157 230.997 176.675 230.351 172.189C233.501 174.064 237.957 174.201 244.205 170.184C262.129 158.721 280.51 164.933 286.966 165.888C291.427 166.535 296.548 163.806 299.301 162.043Z" stroke="black" stroke-width="2.86576" stroke-linecap="round" stroke-linejoin="round"/>
<path d="M309.649 347.968L314.081 346.188L317.404 355.153L316.881 371.422L312.39 372.235L295.344 371.499C295.344 371.499 296.53 361.579 300.156 356.862C303.781 352.145 309.649 347.968 309.649 347.968Z" fill="#3E60FF" fill-opacity="0.22"/>
<path d="M232.034 205.297C232.034 205.297 236.573 197.15 246.126 197.999" stroke="black" stroke-width="2.86576" stroke-miterlimit="10"/>
<path d="M264.834 197.999C264.834 197.999 275.751 195.548 279.572 201.618" stroke="black" stroke-width="2.86576" stroke-miterlimit="10"/>
<path d="M270.597 237.095C270.597 237.095 277.574 239.96 281.45 233.019" stroke="black" stroke-width="2.86576" stroke-miterlimit="10"/>
<path d="M240.507 199.304C240.507 199.304 235.861 253.955 270.506 252.947C276.439 252.775 282.337 248.876 287.973 242.605" stroke="black" stroke-width="2.86576" stroke-miterlimit="10"/>
<path d="M301.78 247.577L287.974 242.605C287.974 242.605 291.397 253.546 308.354 254.383C325.312 255.219 331.002 216.303 318.542 200.645" stroke="black" stroke-width="2.86576" stroke-linejoin="round"/>
<path d="M355.76 357.212C355.76 357.212 343.104 367.482 351.702 372.259" stroke="black" stroke-width="2.86576" stroke-miterlimit="10"/>
<path d="M345.972 347.653C345.972 347.653 324.019 360.078 342.869 372.259" stroke="black" stroke-width="2.86576" stroke-miterlimit="10"/>
<path d="M338.568 338.101C338.568 338.101 309.429 351.747 331.881 372.259" stroke="black" stroke-width="2.86576" stroke-miterlimit="10"/>
<path d="M461.101 372.259C461.101 372.259 496.451 372.259 496.926 338.101C497.4 303.943 428.379 218.172 383.713 206.24C339.048 194.308 337.131 227.007 337.131 228.347C337.131 229.688 334.509 243.774 345.972 258.803C354.824 270.42 393.924 299.422 411.273 312.024C411.91 312.488 412.392 313.134 412.653 313.878C412.913 314.622 412.942 315.427 412.733 316.187C412.526 316.947 412.091 317.626 411.488 318.133C410.885 318.64 410.141 318.951 409.357 319.025L332.628 326.395H332.581C331.857 326.525 304.777 331.521 296.53 340.005C296.53 340.005 291.908 343.429 294.299 348.686C296.69 353.943 304.036 352.21 304.237 352.014" stroke="black" stroke-width="2.86576" stroke-miterlimit="10"/>
<path opacity="0.26" d="M269.267 225.345C274.543 225.345 278.819 221.068 278.819 215.793C278.819 210.517 274.543 206.24 269.267 206.24C263.991 206.24 259.714 210.517 259.714 215.793C259.714 221.068 263.991 225.345 269.267 225.345Z" fill="white"/>
<path opacity="0.26" d="M245.024 224.402C250.299 224.402 254.577 220.125 254.577 214.849C254.577 209.573 250.299 205.297 245.024 205.297C239.748 205.297 235.471 209.573 235.471 214.849C235.471 220.125 239.748 224.402 245.024 224.402Z" fill="white"/>
<path d="M327.595 346.461C324.237 345.523 318.748 344.681 313.094 346.496C310.329 347.387 307.778 348.839 305.6 350.762C305.126 351.178 304.669 351.599 304.23 352.02C303.283 352.948 302.39 353.928 301.554 354.957C301.444 355.093 301.287 355.184 301.115 355.212C299.008 355.503 285.142 357.698 285.214 364.706C285.279 371.001 292.173 372.033 294.547 372.199C294.645 372.208 294.743 372.197 294.836 372.166C294.93 372.135 295.015 372.085 295.088 372.019C295.161 371.954 295.22 371.873 295.26 371.784C295.301 371.694 295.323 371.597 295.324 371.499C295.324 369.256 295.834 362.225 301.382 355.153" stroke="black" stroke-width="2.86576" stroke-miterlimit="10"/>
<path d="M202.665 297.007C204.291 310.114 194.104 316.041 182.967 316.919" stroke="black" stroke-width="2.86576" stroke-miterlimit="10"/>
<path d="M166.78 314.184C162.534 311.89 159.094 308.347 156.928 304.034C154.76 299.722 153.97 294.847 154.665 290.071C156.445 277.463 167.124 267.792 177.579 261.657C199.532 248.776 249.003 258.097 257.316 259.995C263.688 261.455 269.016 256.471 271.176 254.062C271.268 253.96 271.387 253.886 271.519 253.85C271.651 253.813 271.791 253.815 271.922 253.856C272.053 253.897 272.17 253.974 272.259 254.079C272.347 254.184 272.404 254.311 272.422 254.448C276.985 281.147 329.974 317.388 342.233 325.499" stroke="black" stroke-width="2.86576" stroke-miterlimit="10"/>
<path d="M216.033 287.941L198.488 298.829C197.443 299.479 196.272 299.904 195.053 300.075C193.833 300.246 192.591 300.159 191.407 299.821C190.223 299.481 189.123 298.898 188.178 298.108C187.233 297.318 186.464 296.338 185.922 295.233C184.943 293.247 184.749 290.966 185.378 288.843C186.007 286.721 187.413 284.913 189.315 283.782L216.015 267.875" stroke="black" stroke-width="2.86576" stroke-miterlimit="10"/>
<path d="M269.267 225.345C274.543 225.345 278.819 221.068 278.819 215.793C278.819 210.517 274.543 206.24 269.267 206.24C263.991 206.24 259.714 210.517 259.714 215.793C259.714 221.068 263.991 225.345 269.267 225.345Z" stroke="black" stroke-width="2.86576" stroke-miterlimit="10"/>
<path d="M245.024 222.972C249.51 222.972 253.147 219.335 253.147 214.849C253.147 210.363 249.51 206.727 245.024 206.727C240.538 206.727 236.901 210.363 236.901 214.849C236.901 219.335 240.538 222.972 245.024 222.972Z" stroke="white" stroke-width="2.86576" stroke-miterlimit="10"/>
<path d="M245.024 224.402C250.299 224.402 254.577 220.125 254.577 214.849C254.577 209.573 250.299 205.297 245.024 205.297C239.748 205.297 235.471 209.573 235.471 214.849C235.471 220.125 239.748 224.402 245.024 224.402Z" stroke="black" stroke-width="2.86576" stroke-miterlimit="10"/>
<path d="M259.762 214.849H254.576" stroke="black" stroke-width="2.86576" stroke-miterlimit="10"/>
<path d="M259.761 228.347H256.344C256.129 228.347 255.916 228.301 255.722 228.209C255.527 228.118 255.355 227.984 255.218 227.819C255.08 227.653 254.982 227.46 254.928 227.252C254.874 227.043 254.867 226.826 254.908 226.615L257.168 214.849" stroke="black" stroke-width="2.86576" stroke-miterlimit="10"/>
<path d="M191.192 260.951C191.192 260.951 179.011 263.579 174.715 281.972C172.104 293.139 168.521 307.384 166.112 316.854C165.803 318.068 165.775 319.337 166.031 320.564C166.287 321.791 166.82 322.944 167.59 323.933C168.359 324.923 169.344 325.724 170.47 326.275C171.596 326.826 172.832 327.112 174.086 327.112C175.957 327.112 177.773 326.475 179.234 325.305C180.694 324.134 181.712 322.501 182.12 320.675L187.216 297.808" stroke="black" stroke-width="2.86576" stroke-miterlimit="10"/>
<path d="M202.326 303.943C202.326 303.943 215.112 296.301 240.299 303.943C265.485 311.585 294.44 316.771 303.992 296.503" stroke="black" stroke-width="2.86576" stroke-miterlimit="10"/>
<path d="M313.102 346.496C313.102 346.496 322.002 356.654 316.591 372.259" stroke="black" stroke-width="2.86576" stroke-miterlimit="10"/>
<path d="M19.008 220.183H159.626C164.156 220.177 168.555 221.696 172.116 224.494C175.677 227.293 178.194 231.208 179.259 235.61L201.645 328.323C202.249 330.824 202.278 333.431 201.729 335.945C201.18 338.459 200.068 340.816 198.476 342.839C196.883 344.861 194.854 346.495 192.538 347.619C190.223 348.743 187.683 349.327 185.109 349.327H44.8532C40.3326 349.331 35.9414 347.817 32.3844 345.027C28.8277 342.237 26.3108 338.333 25.2379 333.942L2.48977 241.246C1.8755 238.742 1.83854 236.131 2.38173 233.61C2.92492 231.09 4.03402 228.725 5.6252 226.697C7.21632 224.668 9.24793 223.027 11.5664 221.899C13.8848 220.77 16.4295 220.184 19.008 220.183Z" fill="#3E60FF" fill-opacity="0.22"/>
<path d="M24.1286 224.17H156.06C160.311 224.176 164.436 225.607 167.776 228.235C171.116 230.863 173.478 234.536 174.483 238.665L195.499 325.641C196.066 327.988 196.094 330.432 195.579 332.791C195.064 335.15 194.021 337.362 192.528 339.258C191.035 341.156 189.13 342.689 186.958 343.743C184.787 344.798 182.404 345.345 179.989 345.345H48.3775C44.1406 345.336 40.0289 343.91 36.6956 341.295C33.3622 338.679 31.0002 335.023 29.9847 330.91L8.62497 243.928C8.04819 241.578 8.01343 239.128 8.52333 236.763C9.03317 234.398 10.0743 232.179 11.568 230.276C13.0616 228.372 14.9686 226.833 17.1447 225.775C19.3208 224.718 21.709 224.169 24.1286 224.17Z" fill="#3E60FF" fill-opacity="0.22"/>
<path d="M19.008 220.183H159.626C164.156 220.177 168.555 221.696 172.116 224.494C175.677 227.293 178.194 231.208 179.259 235.61L201.645 328.323C202.249 330.824 202.278 333.431 201.729 335.945C201.18 338.459 200.068 340.816 198.476 342.839C196.883 344.861 194.854 346.495 192.538 347.619C190.223 348.743 187.683 349.327 185.109 349.327H44.8532C40.3326 349.331 35.9414 347.817 32.3844 345.027C28.8277 342.237 26.3108 338.333 25.2379 333.942L2.48977 241.246C1.8755 238.742 1.83854 236.131 2.38173 233.61C2.92492 231.09 4.03402 228.725 5.6252 226.697C7.21632 224.668 9.24793 223.027 11.5664 221.899C13.8848 220.77 16.4295 220.184 19.008 220.183Z" stroke="black" stroke-width="2.86576" stroke-miterlimit="10"/>
<path d="M84.866 281.937L76.4823 242.854C76.3084 242.028 75.8557 241.286 75.2001 240.754C74.5445 240.221 73.7257 239.93 72.8808 239.929H31.3956C30.8376 239.931 30.2871 240.059 29.786 240.305C29.2849 240.55 28.8462 240.906 28.5032 241.347C28.1602 241.787 27.9219 242.299 27.8062 242.845C27.6906 243.391 27.7006 243.957 27.8356 244.498L37.5364 284.037C37.6568 284.588 37.9137 285.1 38.284 285.526C38.6162 285.949 39.0399 286.29 39.5228 286.525C40.0058 286.761 40.5356 286.884 41.0726 286.885H41.1497L81.3001 286.41C81.8424 286.403 82.3758 286.275 82.8629 286.037C83.35 285.799 83.779 285.457 84.1184 285.034C84.4643 284.605 84.7105 284.105 84.8398 283.569C84.9692 283.034 84.9781 282.476 84.866 281.937ZM30.6065 243.798C30.5764 243.681 30.5735 243.559 30.5982 243.44C30.6229 243.322 30.6744 243.211 30.7489 243.115C30.825 243.016 30.9229 242.936 31.035 242.88C31.1471 242.825 31.2704 242.796 31.3956 242.795H72.8808C73.0677 242.794 73.2492 242.858 73.394 242.976C73.5394 243.094 73.639 243.258 73.6758 243.442L80.06 273.209C58.7418 252.626 56.327 276.241 56.327 276.241C44.2944 269.975 40.8175 276.834 39.8088 281.349L30.6065 243.798Z" fill="#E2E5F1"/>
<path d="M42.5855 257.984C44.8995 257.266 45.9971 254.199 45.0478 251.131C44.0985 248.064 41.4463 246.165 39.1146 246.883C36.7828 247.601 35.7029 250.668 36.6582 253.73C37.6135 256.791 40.2775 258.702 42.5855 257.984Z" fill="#E2E5F1"/>
<path d="M52.7438 257.284H66.3547C68.0457 257.284 69.7426 257.284 71.4335 257.284H71.6768C72.1533 257.297 72.6267 257.208 73.0652 257.023C73.369 256.873 73.6265 256.644 73.8128 256.362C73.9985 256.079 74.1065 255.752 74.1243 255.414C74.1427 255.076 74.0703 254.739 73.9154 254.438C73.7606 254.137 73.5286 253.882 73.2432 253.7C72.924 253.555 72.6327 253.354 72.3829 253.107C72.2179 252.846 72.1052 252.556 72.0506 252.253C71.7367 251.394 71.1292 250.673 70.3359 250.217C69.7592 249.829 69.1095 249.562 68.4266 249.43C67.7437 249.298 67.0412 249.306 66.3606 249.452C65.6902 249.622 65.0755 249.965 64.5806 250.449C64.1594 250.864 64.0763 251.422 63.75 251.885C63.5364 252.187 63.3999 252.092 63.1092 251.926C62.8185 251.76 62.6583 251.635 62.4209 251.517C61.9528 251.266 61.4669 251.05 60.9673 250.87C59.9497 250.493 58.8645 250.334 57.7811 250.401C55.8766 250.55 53.9779 251.683 53.3134 253.475C52.7147 253.483 52.1386 253.704 51.6883 254.099C51.2379 254.493 50.9436 255.036 50.857 255.629C50.8179 255.857 50.8327 256.092 50.9009 256.313C50.9692 256.535 51.0878 256.737 51.2486 256.904C51.6817 257.215 52.2157 257.35 52.7438 257.284Z" fill="#E2E5F1"/>
<path d="M150.322 256.441L149.23 251.95C148.498 248.93 146.772 246.245 144.329 244.325C141.886 242.405 138.869 241.363 135.762 241.365H120.769C119.058 241.363 117.37 241.756 115.836 242.513C114.302 243.27 112.963 244.371 111.924 245.73C110.885 247.089 110.174 248.669 109.845 250.348C109.516 252.026 109.579 253.758 110.029 255.409L111.27 259.972C112.062 262.907 113.799 265.5 116.214 267.348C118.628 269.196 121.584 270.196 124.625 270.195H139.53C141.213 270.193 142.874 269.81 144.388 269.073C145.901 268.335 147.227 267.264 148.267 265.94C149.306 264.616 150.031 263.072 150.387 261.427C150.743 259.782 150.721 258.077 150.322 256.441ZM133.834 257.551L128.713 260.701C128.516 260.827 128.292 260.905 128.06 260.929C127.827 260.954 127.592 260.924 127.374 260.842C127.155 260.761 126.957 260.629 126.797 260.459C126.638 260.288 126.52 260.083 126.453 259.859L124.524 253.558C124.443 253.278 124.444 252.981 124.524 252.702C124.606 252.422 124.765 252.171 124.983 251.979C125.201 251.786 125.47 251.659 125.757 251.613C126.044 251.567 126.339 251.603 126.607 251.719L133.709 254.857C133.963 254.972 134.181 255.153 134.338 255.383C134.496 255.613 134.587 255.881 134.603 256.159C134.618 256.437 134.556 256.714 134.425 256.959C134.294 257.205 134.097 257.41 133.857 257.551H133.834Z" fill="white"/>
<path d="M146.976 296.788H120.745C119.544 296.786 118.37 296.435 117.365 295.777C116.36 295.12 115.568 294.185 115.085 293.085C114.935 292.747 114.855 292.382 114.848 292.011C114.854 291.296 115.142 290.612 115.65 290.107C116.158 289.603 116.844 289.319 117.559 289.318H145.445C144.134 291.537 144.799 294.604 146.976 296.788Z" fill="#E2E5F1"/>
<path d="M163.968 294.094C163.966 294.808 163.682 295.492 163.177 295.997C162.672 296.502 161.988 296.786 161.274 296.788H146.975C144.798 294.604 144.133 291.537 145.444 289.318H158.035C159.233 289.318 160.406 289.666 161.411 290.321C162.416 290.975 163.209 291.906 163.695 293.002C163.859 293.344 163.952 293.715 163.968 294.094Z" fill="#3E60FF" fill-opacity="0.22"/>
<path d="M157.376 296.788C157.302 296.931 157.217 297.068 157.121 297.197C155.246 299.754 151.188 299.991 148.037 297.689C147.66 297.416 147.306 297.115 146.975 296.788C144.798 294.604 144.133 291.537 145.444 289.318C145.518 289.176 145.603 289.042 145.699 288.914C147.557 286.339 151.633 286.114 154.765 288.398C155.145 288.678 155.504 288.985 155.839 289.318C158.035 291.501 158.67 294.568 157.376 296.788Z" fill="white"/>
<path d="M170.536 310.588C170.53 311.304 170.241 311.988 169.734 312.492C169.226 312.997 168.54 313.28 167.825 313.282H63.8622C65.1912 311.051 64.5267 307.995 62.3433 305.818H164.639C165.838 305.817 167.012 306.167 168.016 306.824C169.021 307.48 169.812 308.415 170.293 309.514C170.447 309.852 170.529 310.217 170.536 310.588Z" fill="#3E60FF" fill-opacity="0.22"/>
<path d="M63.8639 313.252H50.9116C49.7125 313.253 48.5389 312.905 47.5344 312.25C46.5293 311.596 45.736 310.664 45.2513 309.568C45.0988 309.224 45.0175 308.852 45.0139 308.476C45.0127 308.122 45.0822 307.772 45.2174 307.445C45.3527 307.119 45.5509 306.822 45.8013 306.572C46.0517 306.322 46.3489 306.124 46.6764 305.989C47.0034 305.855 47.354 305.787 47.7076 305.788H62.345C64.5284 307.966 65.1929 311.021 63.8639 313.252Z" fill="#E2E5F1"/>
<path d="M63.8621 313.252C63.8016 313.398 63.7215 313.536 63.6248 313.662C61.7677 316.237 57.6915 316.456 54.5528 314.172C54.1749 313.892 53.8183 313.585 53.4848 313.252C51.3192 311.069 50.6547 308.019 51.9481 305.788C52.0205 305.644 52.106 305.507 52.2033 305.379C54.0782 302.822 58.1365 302.584 61.2871 304.88C61.6632 305.154 62.0163 305.458 62.3432 305.788C64.5266 307.966 65.1912 311.021 63.8621 313.252Z" fill="white"/>
<path d="M73.0354 329.575H56.5766C55.378 329.574 54.205 329.225 53.2005 328.571C52.196 327.917 51.4028 326.986 50.9162 325.89C50.7531 325.559 50.6599 325.197 50.6433 324.828C50.6451 324.111 50.9305 323.424 51.4378 322.917C51.9445 322.41 52.6315 322.124 53.3489 322.123H71.4868C70.2231 324.365 70.8698 327.415 73.0354 329.575Z" fill="#3E60FF" fill-opacity="0.22"/>
<path d="M176.179 326.923C176.169 327.635 175.878 328.313 175.368 328.81C174.858 329.308 174.173 329.582 173.461 329.575H73.0349C70.8693 327.391 70.2047 324.342 71.4982 322.111H170.281C171.481 322.11 172.654 322.46 173.659 323.116C174.663 323.773 175.454 324.708 175.935 325.807C176.092 326.158 176.175 326.538 176.179 326.923Z" fill="#E2E5F1"/>
<path d="M83.43 329.575C83.3576 329.718 83.2721 329.856 83.1748 329.984C81.3177 332.559 77.2416 332.778 74.1088 330.494C73.7285 330.214 73.3695 329.907 73.0349 329.575C70.8693 327.391 70.2047 324.341 71.4982 322.11C71.5724 321.968 71.6578 321.831 71.7533 321.701C73.6282 319.143 77.6866 318.919 80.8371 321.203C81.2139 321.475 81.5675 321.778 81.8933 322.11C84.0767 324.311 84.7412 327.379 83.43 329.575Z" fill="white"/>
<g opacity="0.21">
<path opacity="0.21" d="M86.3011 283.367L77.9352 244.284C77.762 243.458 77.3093 242.716 76.6536 242.184C75.9974 241.653 75.178 241.363 74.3337 241.365H32.8425C32.2806 241.365 31.7264 241.494 31.2225 241.742C30.7184 241.989 30.278 242.35 29.9353 242.795C29.5954 243.231 29.3599 243.739 29.2468 244.279C29.1337 244.821 29.1459 245.381 29.2826 245.916L38.9834 285.461C39.1021 286.012 39.3572 286.524 39.7251 286.95C40.0585 287.372 40.4833 287.713 40.9675 287.948C41.451 288.181 41.9821 288.303 42.5196 288.303H42.6146L82.759 287.822C83.3001 287.816 83.8329 287.689 84.3188 287.453C84.8053 287.215 85.2331 286.874 85.5713 286.452C85.9125 286.023 86.1546 285.524 86.2809 284.99C86.4067 284.458 86.4138 283.903 86.3011 283.367ZM32.0356 245.233C32.0053 245.116 32.0029 244.993 32.029 244.875C32.0545 244.756 32.1079 244.645 32.1839 244.551C32.2581 244.451 32.3548 244.37 32.4663 244.315C32.5773 244.259 32.7001 244.23 32.8247 244.231H74.31C74.4969 244.23 74.6785 244.292 74.8244 244.409C74.9704 244.526 75.0718 244.689 75.111 244.872L81.4952 274.639C60.1711 254.05 57.7622 277.671 57.7622 277.671C45.7354 271.405 42.2526 278.264 41.2499 282.779L32.0356 245.233Z" fill="#E2E5F1"/>
<path opacity="0.21" d="M44.0201 259.414C46.3281 258.696 47.4317 255.629 46.4765 252.567C45.5212 249.505 42.8809 247.595 40.5432 248.313C38.2055 249.031 37.1316 252.098 38.0809 255.166C39.0302 258.233 41.7417 260.156 44.0201 259.414Z" fill="#E2E5F1"/>
<path opacity="0.21" d="M54.2016 258.72H67.8066C69.5035 258.72 71.1945 258.72 72.8914 258.72H73.1287C73.6046 258.733 74.078 258.644 74.5171 258.459C74.8221 258.31 75.0814 258.082 75.2683 257.8C75.4557 257.517 75.5637 257.188 75.5821 256.85C75.6005 256.511 75.5275 256.174 75.3715 255.872C75.2154 255.571 74.9823 255.317 74.6951 255.136C74.3783 254.986 74.0881 254.785 73.8348 254.543C73.6746 254.278 73.5624 253.987 73.5025 253.682C73.188 252.827 72.5835 252.109 71.7937 251.653C71.2158 251.264 70.5656 250.995 69.8814 250.864C69.1973 250.732 68.4937 250.74 67.8125 250.888C67.1527 251.059 66.5505 251.403 66.0681 251.885C65.6409 252.3 65.5638 252.852 65.2375 253.321C65.0239 253.623 64.8874 253.528 64.5967 253.356C64.306 253.184 64.1458 253.071 63.9084 252.947C63.4403 252.698 62.9544 252.484 62.4548 252.306C61.4372 251.928 60.352 251.766 59.2686 251.831C57.3641 251.98 55.4654 253.119 54.795 254.905C54.1963 254.914 53.6208 255.137 53.1716 255.533C52.7225 255.929 52.4294 256.472 52.3445 257.064C52.306 257.293 52.3214 257.527 52.3878 257.747C52.4549 257.969 52.5718 258.172 52.7302 258.34C53.1586 258.64 53.6813 258.776 54.2016 258.72Z" fill="#E2E5F1"/>
<path opacity="0.21" d="M151.782 257.871L150.69 253.386C149.957 250.365 148.229 247.679 145.786 245.758C143.342 243.837 140.323 242.794 137.216 242.795H122.198C120.49 242.794 118.803 243.187 117.272 243.943C115.739 244.699 114.402 245.798 113.363 247.155C112.324 248.511 111.612 250.089 111.282 251.765C110.951 253.442 111.013 255.172 111.459 256.821L112.699 261.39C113.493 264.326 115.231 266.919 117.646 268.767C120.062 270.615 123.02 271.615 126.061 271.613H140.965C142.649 271.613 144.311 271.232 145.826 270.497C147.341 269.762 148.669 268.692 149.71 267.369C150.752 266.046 151.479 264.504 151.838 262.858C152.197 261.213 152.177 259.508 151.782 257.871ZM135.287 258.969L130.149 262.137C129.952 262.263 129.729 262.341 129.497 262.365C129.264 262.39 129.03 262.36 128.812 262.278C128.593 262.197 128.396 262.065 128.237 261.895C128.078 261.724 127.96 261.518 127.894 261.295L125.996 254.988C125.916 254.709 125.917 254.413 125.999 254.134C126.081 253.856 126.24 253.606 126.458 253.414C126.676 253.222 126.944 253.096 127.23 253.05C127.517 253.004 127.811 253.04 128.078 253.154L135.127 256.287C135.377 256.403 135.591 256.584 135.746 256.812C135.901 257.039 135.992 257.305 136.009 257.581C136.025 257.855 135.967 258.13 135.84 258.374C135.713 258.619 135.522 258.824 135.287 258.969Z" fill="#E2E5F1"/>
<path opacity="0.21" d="M148.41 298.217H122.179C120.979 298.215 119.806 297.864 118.801 297.208C117.796 296.553 117.003 295.619 116.519 294.521C116.334 294.111 116.255 293.661 116.291 293.213C116.326 292.765 116.474 292.333 116.72 291.957C116.967 291.582 117.305 291.274 117.702 291.064C118.099 290.853 118.543 290.746 118.993 290.753H146.879C145.574 292.967 146.226 296.04 148.41 298.217Z" fill="#E2E5F1"/>
<path opacity="0.21" d="M165.368 295.524C165.368 296.238 165.085 296.922 164.581 297.427C164.077 297.931 163.394 298.216 162.68 298.217H148.411C146.228 296.04 145.563 292.967 146.874 290.753H159.471C160.67 290.753 161.843 291.101 162.848 291.755C163.853 292.409 164.646 293.342 165.13 294.438C165.283 294.78 165.363 295.149 165.368 295.524Z" fill="#3E60FF" fill-opacity="0.22"/>
<path opacity="0.21" d="M158.805 298.217C158.736 298.363 158.651 298.5 158.55 298.627C156.675 301.184 152.618 301.421 149.467 299.125C149.092 298.85 148.739 298.547 148.411 298.217C146.228 296.04 145.563 292.967 146.874 290.753C146.948 290.609 147.036 290.472 147.135 290.344C148.992 287.769 153.069 287.549 156.201 289.834C156.581 290.113 156.94 290.421 157.275 290.753C159.441 292.937 160.105 295.987 158.805 298.217Z" fill="white"/>
<path opacity="0.21" d="M171.965 311.994C171.958 312.709 171.67 313.394 171.162 313.897C170.654 314.4 169.968 314.682 169.253 314.682H65.2968C66.6258 312.451 65.9613 309.402 63.7778 307.218H166.067C167.268 307.218 168.443 307.568 169.449 308.226C170.454 308.884 171.246 309.82 171.727 310.921C171.88 311.259 171.961 311.624 171.965 311.994Z" fill="#3E60FF" fill-opacity="0.22"/>
<path opacity="0.21" d="M65.2973 314.682H52.3391C51.1411 314.682 49.9687 314.334 48.9642 313.681C47.9597 313.028 47.1659 312.098 46.6787 311.004C46.5292 310.659 46.4491 310.288 46.4414 309.912C46.4414 309.198 46.725 308.512 47.2305 308.007C47.7355 307.502 48.4207 307.218 49.1351 307.218H63.7784C65.9618 309.402 66.6263 312.451 65.2973 314.682Z" fill="#E2E5F1"/>
<path opacity="0.21" d="M65.2968 314.683C65.2357 314.83 65.1538 314.968 65.0535 315.092C63.1964 317.667 59.1203 317.893 55.9875 315.608C55.6072 315.327 55.2482 315.017 54.9136 314.683C52.748 312.505 52.0834 309.45 53.3828 307.219C53.4522 307.073 53.5383 306.936 53.6379 306.809C55.5129 304.252 59.5712 304.014 62.7218 306.316C63.095 306.592 63.448 306.893 63.7779 307.219C65.9613 309.402 66.6258 312.452 65.2968 314.683Z" fill="white"/>
<path opacity="0.21" d="M74.4654 331.028H57.9829C56.7849 331.026 55.6137 330.678 54.6092 330.025C53.6047 329.372 52.8108 328.443 52.3225 327.35C52.1736 327.011 52.0929 326.646 52.0852 326.276C52.0882 325.558 52.3748 324.87 52.8826 324.362C53.3905 323.854 54.0782 323.567 54.7967 323.564H72.9347C71.6353 325.795 72.2998 328.851 74.4654 331.028Z" fill="#3E60FF" fill-opacity="0.22"/>
<path opacity="0.21" d="M177.615 328.352C177.614 328.706 177.544 329.054 177.408 329.38C177.272 329.705 177.073 330.001 176.823 330.249C176.573 330.498 176.276 330.694 175.95 330.828C175.623 330.962 175.274 331.03 174.921 331.028H74.4654C72.2997 328.851 71.6352 325.795 72.9346 323.564H171.711C172.913 323.564 174.088 323.914 175.093 324.572C176.098 325.23 176.891 326.166 177.372 327.267C177.525 327.608 177.608 327.978 177.615 328.352Z" fill="#E2E5F1"/>
<path opacity="0.21" d="M84.8663 331.028C84.7922 331.173 84.705 331.31 84.6053 331.438C82.7482 334.013 78.672 334.238 75.5393 331.954C75.159 331.672 74.8 331.363 74.4654 331.028C72.2997 328.851 71.6352 325.795 72.9346 323.564C73.0046 323.419 73.09 323.282 73.1897 323.155C75.0646 320.598 79.123 320.378 82.2735 322.662C82.6467 322.937 82.9997 323.239 83.3296 323.564C85.5131 325.748 86.1776 328.815 84.8663 331.028Z" fill="white"/>
</g>
</svg>
